G04 #@! TF.FileFunction,Copper,L2,Bot,Signal*
%FSLAX46Y46*%
G04 Gerber Fmt 4.6, Leading zero omitted, Abs format (unit mm)*
G04 Created by KiCad (PCBNEW 4.0.1-stable) date 2/4/2016 7:17:40 PM*
%MOMM*%
G01*
G04 APERTURE LIST*
%ADD10C,0.100000*%
%ADD11C,0.150000*%
%ADD12C,0.300000*%
%ADD13C,0.400000*%
%ADD14C,4.064000*%
%ADD15C,1.200000*%
%ADD16C,1.900000*%
%ADD17R,1.300000X0.700000*%
%ADD18C,1.000000*%
%ADD19C,4.100000*%
%ADD20C,0.762000*%
%ADD21C,3.000000*%
%ADD22C,0.250000*%
%ADD23C,2.000000*%
%ADD24C,0.203200*%
G04 APERTURE END LIST*
D10*
D11*
X177002200Y-166007200D02*
X177002200Y-198007200D01*
X285002200Y-198007200D01*
X285002200Y-166007200D01*
X177002200Y-166007200D01*
D10*
D11*
X10000000Y-10000000D02*
X10000000Y-200007200D01*
X287002200Y-200007200D01*
X287002200Y-10000000D01*
X10000000Y-10000000D01*
D10*
D11*
X12000000Y-12000000D02*
X12000000Y-198007200D01*
X285002200Y-198007200D01*
X285002200Y-12000000D01*
X12000000Y-12000000D01*
D10*
D11*
X60000000Y-12000000D02*
X60000000Y-10000000D01*
D10*
D11*
X110000000Y-12000000D02*
X110000000Y-10000000D01*
D10*
D11*
X160000000Y-12000000D02*
X160000000Y-10000000D01*
D10*
D11*
X210000000Y-12000000D02*
X210000000Y-10000000D01*
D10*
D11*
X260000000Y-12000000D02*
X260000000Y-10000000D01*
D10*
D11*
X35990476Y-11588095D02*
X35247619Y-11588095D01*
X35619048Y-11588095D02*
X35619048Y-10288095D01*
X35495238Y-10473810D01*
X35371429Y-10597619D01*
X35247619Y-10659524D01*
D10*
D11*
X85247619Y-10411905D02*
X85309524Y-10350000D01*
X85433333Y-10288095D01*
X85742857Y-10288095D01*
X85866667Y-10350000D01*
X85928571Y-10411905D01*
X85990476Y-10535714D01*
X85990476Y-10659524D01*
X85928571Y-10845238D01*
X85185714Y-11588095D01*
X85990476Y-11588095D01*
D10*
D11*
X135185714Y-10288095D02*
X135990476Y-10288095D01*
X135557143Y-10783333D01*
X135742857Y-10783333D01*
X135866667Y-10845238D01*
X135928571Y-10907143D01*
X135990476Y-11030952D01*
X135990476Y-11340476D01*
X135928571Y-11464286D01*
X135866667Y-11526190D01*
X135742857Y-11588095D01*
X135371429Y-11588095D01*
X135247619Y-11526190D01*
X135185714Y-11464286D01*
D10*
D11*
X185866667Y-10721429D02*
X185866667Y-11588095D01*
X185557143Y-10226190D02*
X185247619Y-11154762D01*
X186052381Y-11154762D01*
D10*
D11*
X235928571Y-10288095D02*
X235309524Y-10288095D01*
X235247619Y-10907143D01*
X235309524Y-10845238D01*
X235433333Y-10783333D01*
X235742857Y-10783333D01*
X235866667Y-10845238D01*
X235928571Y-10907143D01*
X235990476Y-11030952D01*
X235990476Y-11340476D01*
X235928571Y-11464286D01*
X235866667Y-11526190D01*
X235742857Y-11588095D01*
X235433333Y-11588095D01*
X235309524Y-11526190D01*
X235247619Y-11464286D01*
D10*
D11*
X285866667Y-10288095D02*
X285619048Y-10288095D01*
X285495238Y-10350000D01*
X285433333Y-10411905D01*
X285309524Y-10597619D01*
X285247619Y-10845238D01*
X285247619Y-11340476D01*
X285309524Y-11464286D01*
X285371429Y-11526190D01*
X285495238Y-11588095D01*
X285742857Y-11588095D01*
X285866667Y-11526190D01*
X285928571Y-11464286D01*
X285990476Y-11340476D01*
X285990476Y-11030952D01*
X285928571Y-10907143D01*
X285866667Y-10845238D01*
X285742857Y-10783333D01*
X285495238Y-10783333D01*
X285371429Y-10845238D01*
X285309524Y-10907143D01*
X285247619Y-11030952D01*
D10*
D11*
X60000000Y-198007200D02*
X60000000Y-200007200D01*
D10*
D11*
X110000000Y-198007200D02*
X110000000Y-200007200D01*
D10*
D11*
X160000000Y-198007200D02*
X160000000Y-200007200D01*
D10*
D11*
X210000000Y-198007200D02*
X210000000Y-200007200D01*
D10*
D11*
X260000000Y-198007200D02*
X260000000Y-200007200D01*
D10*
D11*
X35990476Y-199595295D02*
X35247619Y-199595295D01*
X35619048Y-199595295D02*
X35619048Y-198295295D01*
X35495238Y-198481010D01*
X35371429Y-198604819D01*
X35247619Y-198666724D01*
D10*
D11*
X85247619Y-198419105D02*
X85309524Y-198357200D01*
X85433333Y-198295295D01*
X85742857Y-198295295D01*
X85866667Y-198357200D01*
X85928571Y-198419105D01*
X85990476Y-198542914D01*
X85990476Y-198666724D01*
X85928571Y-198852438D01*
X85185714Y-199595295D01*
X85990476Y-199595295D01*
D10*
D11*
X135185714Y-198295295D02*
X135990476Y-198295295D01*
X135557143Y-198790533D01*
X135742857Y-198790533D01*
X135866667Y-198852438D01*
X135928571Y-198914343D01*
X135990476Y-199038152D01*
X135990476Y-199347676D01*
X135928571Y-199471486D01*
X135866667Y-199533390D01*
X135742857Y-199595295D01*
X135371429Y-199595295D01*
X135247619Y-199533390D01*
X135185714Y-199471486D01*
D10*
D11*
X185866667Y-198728629D02*
X185866667Y-199595295D01*
X185557143Y-198233390D02*
X185247619Y-199161962D01*
X186052381Y-199161962D01*
D10*
D11*
X235928571Y-198295295D02*
X235309524Y-198295295D01*
X235247619Y-198914343D01*
X235309524Y-198852438D01*
X235433333Y-198790533D01*
X235742857Y-198790533D01*
X235866667Y-198852438D01*
X235928571Y-198914343D01*
X235990476Y-199038152D01*
X235990476Y-199347676D01*
X235928571Y-199471486D01*
X235866667Y-199533390D01*
X235742857Y-199595295D01*
X235433333Y-199595295D01*
X235309524Y-199533390D01*
X235247619Y-199471486D01*
D10*
D11*
X285866667Y-198295295D02*
X285619048Y-198295295D01*
X285495238Y-198357200D01*
X285433333Y-198419105D01*
X285309524Y-198604819D01*
X285247619Y-198852438D01*
X285247619Y-199347676D01*
X285309524Y-199471486D01*
X285371429Y-199533390D01*
X285495238Y-199595295D01*
X285742857Y-199595295D01*
X285866667Y-199533390D01*
X285928571Y-199471486D01*
X285990476Y-199347676D01*
X285990476Y-199038152D01*
X285928571Y-198914343D01*
X285866667Y-198852438D01*
X285742857Y-198790533D01*
X285495238Y-198790533D01*
X285371429Y-198852438D01*
X285309524Y-198914343D01*
X285247619Y-199038152D01*
D10*
D11*
X10000000Y-60000000D02*
X12000000Y-60000000D01*
D10*
D11*
X10000000Y-110000000D02*
X12000000Y-110000000D01*
D10*
D11*
X10000000Y-160000000D02*
X12000000Y-160000000D01*
D10*
D11*
X10690476Y-35216667D02*
X11309524Y-35216667D01*
X10566667Y-35588095D02*
X11000000Y-34288095D01*
X11433333Y-35588095D01*
D10*
D11*
X11092857Y-84907143D02*
X11278571Y-84969048D01*
X11340476Y-85030952D01*
X11402381Y-85154762D01*
X11402381Y-85340476D01*
X11340476Y-85464286D01*
X11278571Y-85526190D01*
X11154762Y-85588095D01*
X10659524Y-85588095D01*
X10659524Y-84288095D01*
X11092857Y-84288095D01*
X11216667Y-84350000D01*
X11278571Y-84411905D01*
X11340476Y-84535714D01*
X11340476Y-84659524D01*
X11278571Y-84783333D01*
X11216667Y-84845238D01*
X11092857Y-84907143D01*
X10659524Y-84907143D01*
D10*
D11*
X11402381Y-135464286D02*
X11340476Y-135526190D01*
X11154762Y-135588095D01*
X11030952Y-135588095D01*
X10845238Y-135526190D01*
X10721429Y-135402381D01*
X10659524Y-135278571D01*
X10597619Y-135030952D01*
X10597619Y-134845238D01*
X10659524Y-134597619D01*
X10721429Y-134473810D01*
X10845238Y-134350000D01*
X11030952Y-134288095D01*
X11154762Y-134288095D01*
X11340476Y-134350000D01*
X11402381Y-134411905D01*
D10*
D11*
X10659524Y-185588095D02*
X10659524Y-184288095D01*
X10969048Y-184288095D01*
X11154762Y-184350000D01*
X11278571Y-184473810D01*
X11340476Y-184597619D01*
X11402381Y-184845238D01*
X11402381Y-185030952D01*
X11340476Y-185278571D01*
X11278571Y-185402381D01*
X11154762Y-185526190D01*
X10969048Y-185588095D01*
X10659524Y-185588095D01*
D10*
D11*
X287002200Y-60000000D02*
X285002200Y-60000000D01*
D10*
D11*
X287002200Y-110000000D02*
X285002200Y-110000000D01*
D10*
D11*
X287002200Y-160000000D02*
X285002200Y-160000000D01*
D10*
D11*
X285692676Y-35216667D02*
X286311724Y-35216667D01*
X285568867Y-35588095D02*
X286002200Y-34288095D01*
X286435533Y-35588095D01*
D10*
D11*
X286095057Y-84907143D02*
X286280771Y-84969048D01*
X286342676Y-85030952D01*
X286404581Y-85154762D01*
X286404581Y-85340476D01*
X286342676Y-85464286D01*
X286280771Y-85526190D01*
X286156962Y-85588095D01*
X285661724Y-85588095D01*
X285661724Y-84288095D01*
X286095057Y-84288095D01*
X286218867Y-84350000D01*
X286280771Y-84411905D01*
X286342676Y-84535714D01*
X286342676Y-84659524D01*
X286280771Y-84783333D01*
X286218867Y-84845238D01*
X286095057Y-84907143D01*
X285661724Y-84907143D01*
D10*
D11*
X286404581Y-135464286D02*
X286342676Y-135526190D01*
X286156962Y-135588095D01*
X286033152Y-135588095D01*
X285847438Y-135526190D01*
X285723629Y-135402381D01*
X285661724Y-135278571D01*
X285599819Y-135030952D01*
X285599819Y-134845238D01*
X285661724Y-134597619D01*
X285723629Y-134473810D01*
X285847438Y-134350000D01*
X286033152Y-134288095D01*
X286156962Y-134288095D01*
X286342676Y-134350000D01*
X286404581Y-134411905D01*
D10*
D11*
X285661724Y-185588095D02*
X285661724Y-184288095D01*
X285971248Y-184288095D01*
X286156962Y-184350000D01*
X286280771Y-184473810D01*
X286342676Y-184597619D01*
X286404581Y-184845238D01*
X286404581Y-185030952D01*
X286342676Y-185278571D01*
X286280771Y-185402381D01*
X286156962Y-185526190D01*
X285971248Y-185588095D01*
X285661724Y-185588095D01*
D10*
D11*
X200359343Y-193785771D02*
X200359343Y-192285771D01*
X200716486Y-192285771D01*
X200930771Y-192357200D01*
X201073629Y-192500057D01*
X201145057Y-192642914D01*
X201216486Y-192928629D01*
X201216486Y-193142914D01*
X201145057Y-193428629D01*
X201073629Y-193571486D01*
X200930771Y-193714343D01*
X200716486Y-193785771D01*
X200359343Y-193785771D01*
X202502200Y-193785771D02*
X202502200Y-193000057D01*
X202430771Y-192857200D01*
X202287914Y-192785771D01*
X202002200Y-192785771D01*
X201859343Y-192857200D01*
X202502200Y-193714343D02*
X202359343Y-193785771D01*
X202002200Y-193785771D01*
X201859343Y-193714343D01*
X201787914Y-193571486D01*
X201787914Y-193428629D01*
X201859343Y-193285771D01*
X202002200Y-193214343D01*
X202359343Y-193214343D01*
X202502200Y-193142914D01*
X203002200Y-192785771D02*
X203573629Y-192785771D01*
X203216486Y-192285771D02*
X203216486Y-193571486D01*
X203287914Y-193714343D01*
X203430772Y-193785771D01*
X203573629Y-193785771D01*
X204645057Y-193714343D02*
X204502200Y-193785771D01*
X204216486Y-193785771D01*
X204073629Y-193714343D01*
X204002200Y-193571486D01*
X204002200Y-193000057D01*
X204073629Y-192857200D01*
X204216486Y-192785771D01*
X204502200Y-192785771D01*
X204645057Y-192857200D01*
X204716486Y-193000057D01*
X204716486Y-193142914D01*
X204002200Y-193285771D01*
X205359343Y-193642914D02*
X205430771Y-193714343D01*
X205359343Y-193785771D01*
X205287914Y-193714343D01*
X205359343Y-193642914D01*
X205359343Y-193785771D01*
X205359343Y-192857200D02*
X205430771Y-192928629D01*
X205359343Y-193000057D01*
X205287914Y-192928629D01*
X205359343Y-192857200D01*
X205359343Y-193000057D01*
D10*
D11*
X177002200Y-194507200D02*
X285002200Y-194507200D01*
D10*
D11*
X178359343Y-196585771D02*
X178359343Y-195085771D01*
X179216486Y-196585771D02*
X178573629Y-195728629D01*
X179216486Y-195085771D02*
X178359343Y-195942914D01*
X179859343Y-196585771D02*
X179859343Y-195585771D01*
X179859343Y-195085771D02*
X179787914Y-195157200D01*
X179859343Y-195228629D01*
X179930771Y-195157200D01*
X179859343Y-195085771D01*
X179859343Y-195228629D01*
X181430772Y-196442914D02*
X181359343Y-196514343D01*
X181145057Y-196585771D01*
X181002200Y-196585771D01*
X180787915Y-196514343D01*
X180645057Y-196371486D01*
X180573629Y-196228629D01*
X180502200Y-195942914D01*
X180502200Y-195728629D01*
X180573629Y-195442914D01*
X180645057Y-195300057D01*
X180787915Y-195157200D01*
X181002200Y-195085771D01*
X181145057Y-195085771D01*
X181359343Y-195157200D01*
X181430772Y-195228629D01*
X182716486Y-196585771D02*
X182716486Y-195800057D01*
X182645057Y-195657200D01*
X182502200Y-195585771D01*
X182216486Y-195585771D01*
X182073629Y-195657200D01*
X182716486Y-196514343D02*
X182573629Y-196585771D01*
X182216486Y-196585771D01*
X182073629Y-196514343D01*
X182002200Y-196371486D01*
X182002200Y-196228629D01*
X182073629Y-196085771D01*
X182216486Y-196014343D01*
X182573629Y-196014343D01*
X182716486Y-195942914D01*
X184073629Y-196585771D02*
X184073629Y-195085771D01*
X184073629Y-196514343D02*
X183930772Y-196585771D01*
X183645058Y-196585771D01*
X183502200Y-196514343D01*
X183430772Y-196442914D01*
X183359343Y-196300057D01*
X183359343Y-195871486D01*
X183430772Y-195728629D01*
X183502200Y-195657200D01*
X183645058Y-195585771D01*
X183930772Y-195585771D01*
X184073629Y-195657200D01*
X185930772Y-195800057D02*
X186430772Y-195800057D01*
X186645058Y-196585771D02*
X185930772Y-196585771D01*
X185930772Y-195085771D01*
X186645058Y-195085771D01*
X187287915Y-196442914D02*
X187359343Y-196514343D01*
X187287915Y-196585771D01*
X187216486Y-196514343D01*
X187287915Y-196442914D01*
X187287915Y-196585771D01*
X188002201Y-196585771D02*
X188002201Y-195085771D01*
X188359344Y-195085771D01*
X188573629Y-195157200D01*
X188716487Y-195300057D01*
X188787915Y-195442914D01*
X188859344Y-195728629D01*
X188859344Y-195942914D01*
X188787915Y-196228629D01*
X188716487Y-196371486D01*
X188573629Y-196514343D01*
X188359344Y-196585771D01*
X188002201Y-196585771D01*
X189502201Y-196442914D02*
X189573629Y-196514343D01*
X189502201Y-196585771D01*
X189430772Y-196514343D01*
X189502201Y-196442914D01*
X189502201Y-196585771D01*
X190145058Y-196157200D02*
X190859344Y-196157200D01*
X190002201Y-196585771D02*
X190502201Y-195085771D01*
X191002201Y-196585771D01*
X191502201Y-196442914D02*
X191573629Y-196514343D01*
X191502201Y-196585771D01*
X191430772Y-196514343D01*
X191502201Y-196442914D01*
X191502201Y-196585771D01*
X194502201Y-196585771D02*
X194502201Y-195085771D01*
X194645058Y-196014343D02*
X195073629Y-196585771D01*
X195073629Y-195585771D02*
X194502201Y-196157200D01*
X195716487Y-196585771D02*
X195716487Y-195585771D01*
X195716487Y-195085771D02*
X195645058Y-195157200D01*
X195716487Y-195228629D01*
X195787915Y-195157200D01*
X195716487Y-195085771D01*
X195716487Y-195228629D01*
X197073630Y-196514343D02*
X196930773Y-196585771D01*
X196645059Y-196585771D01*
X196502201Y-196514343D01*
X196430773Y-196442914D01*
X196359344Y-196300057D01*
X196359344Y-195871486D01*
X196430773Y-195728629D01*
X196502201Y-195657200D01*
X196645059Y-195585771D01*
X196930773Y-195585771D01*
X197073630Y-195657200D01*
X198359344Y-196585771D02*
X198359344Y-195800057D01*
X198287915Y-195657200D01*
X198145058Y-195585771D01*
X197859344Y-195585771D01*
X197716487Y-195657200D01*
X198359344Y-196514343D02*
X198216487Y-196585771D01*
X197859344Y-196585771D01*
X197716487Y-196514343D01*
X197645058Y-196371486D01*
X197645058Y-196228629D01*
X197716487Y-196085771D01*
X197859344Y-196014343D01*
X198216487Y-196014343D01*
X198359344Y-195942914D01*
X199716487Y-196585771D02*
X199716487Y-195085771D01*
X199716487Y-196514343D02*
X199573630Y-196585771D01*
X199287916Y-196585771D01*
X199145058Y-196514343D01*
X199073630Y-196442914D01*
X199002201Y-196300057D01*
X199002201Y-195871486D01*
X199073630Y-195728629D01*
X199145058Y-195657200D01*
X199287916Y-195585771D01*
X199573630Y-195585771D01*
X199716487Y-195657200D01*
X202216487Y-195585771D02*
X202216487Y-196585771D01*
X201859344Y-195014343D02*
X201502201Y-196085771D01*
X202430773Y-196085771D01*
X203002201Y-196442914D02*
X203073629Y-196514343D01*
X203002201Y-196585771D01*
X202930772Y-196514343D01*
X203002201Y-196442914D01*
X203002201Y-196585771D01*
X204002201Y-195085771D02*
X204145058Y-195085771D01*
X204287915Y-195157200D01*
X204359344Y-195228629D01*
X204430773Y-195371486D01*
X204502201Y-195657200D01*
X204502201Y-196014343D01*
X204430773Y-196300057D01*
X204359344Y-196442914D01*
X204287915Y-196514343D01*
X204145058Y-196585771D01*
X204002201Y-196585771D01*
X203859344Y-196514343D01*
X203787915Y-196442914D01*
X203716487Y-196300057D01*
X203645058Y-196014343D01*
X203645058Y-195657200D01*
X203716487Y-195371486D01*
X203787915Y-195228629D01*
X203859344Y-195157200D01*
X204002201Y-195085771D01*
X205145058Y-196442914D02*
X205216486Y-196514343D01*
X205145058Y-196585771D01*
X205073629Y-196514343D01*
X205145058Y-196442914D01*
X205145058Y-196585771D01*
X206645058Y-196585771D02*
X205787915Y-196585771D01*
X206216487Y-196585771D02*
X206216487Y-195085771D01*
X206073630Y-195300057D01*
X205930772Y-195442914D01*
X205787915Y-195514343D01*
X207287915Y-196014343D02*
X208430772Y-196014343D01*
X209073629Y-196514343D02*
X209216486Y-196585771D01*
X209502201Y-196585771D01*
X209645058Y-196514343D01*
X209716486Y-196371486D01*
X209716486Y-196300057D01*
X209645058Y-196157200D01*
X209502201Y-196085771D01*
X209287915Y-196085771D01*
X209145058Y-196014343D01*
X209073629Y-195871486D01*
X209073629Y-195800057D01*
X209145058Y-195657200D01*
X209287915Y-195585771D01*
X209502201Y-195585771D01*
X209645058Y-195657200D01*
X210145058Y-195585771D02*
X210716487Y-195585771D01*
X210359344Y-195085771D02*
X210359344Y-196371486D01*
X210430772Y-196514343D01*
X210573630Y-196585771D01*
X210716487Y-196585771D01*
X211859344Y-196585771D02*
X211859344Y-195800057D01*
X211787915Y-195657200D01*
X211645058Y-195585771D01*
X211359344Y-195585771D01*
X211216487Y-195657200D01*
X211859344Y-196514343D02*
X211716487Y-196585771D01*
X211359344Y-196585771D01*
X211216487Y-196514343D01*
X211145058Y-196371486D01*
X211145058Y-196228629D01*
X211216487Y-196085771D01*
X211359344Y-196014343D01*
X211716487Y-196014343D01*
X211859344Y-195942914D01*
X212573630Y-196585771D02*
X212573630Y-195085771D01*
X212573630Y-195657200D02*
X212716487Y-195585771D01*
X213002201Y-195585771D01*
X213145058Y-195657200D01*
X213216487Y-195728629D01*
X213287916Y-195871486D01*
X213287916Y-196300057D01*
X213216487Y-196442914D01*
X213145058Y-196514343D01*
X213002201Y-196585771D01*
X212716487Y-196585771D01*
X212573630Y-196514343D01*
X214145059Y-196585771D02*
X214002201Y-196514343D01*
X213930773Y-196371486D01*
X213930773Y-195085771D01*
X215287915Y-196514343D02*
X215145058Y-196585771D01*
X214859344Y-196585771D01*
X214716487Y-196514343D01*
X214645058Y-196371486D01*
X214645058Y-195800057D01*
X214716487Y-195657200D01*
X214859344Y-195585771D01*
X215145058Y-195585771D01*
X215287915Y-195657200D01*
X215359344Y-195800057D01*
X215359344Y-195942914D01*
X214645058Y-196085771D01*
D10*
D11*
X177002200Y-191507200D02*
X285002200Y-191507200D01*
D10*
D12*
X264216486Y-193785771D02*
X263716486Y-193071486D01*
X263359343Y-193785771D02*
X263359343Y-192285771D01*
X263930771Y-192285771D01*
X264073629Y-192357200D01*
X264145057Y-192428629D01*
X264216486Y-192571486D01*
X264216486Y-192785771D01*
X264145057Y-192928629D01*
X264073629Y-193000057D01*
X263930771Y-193071486D01*
X263359343Y-193071486D01*
X265430771Y-193714343D02*
X265287914Y-193785771D01*
X265002200Y-193785771D01*
X264859343Y-193714343D01*
X264787914Y-193571486D01*
X264787914Y-193000057D01*
X264859343Y-192857200D01*
X265002200Y-192785771D01*
X265287914Y-192785771D01*
X265430771Y-192857200D01*
X265502200Y-193000057D01*
X265502200Y-193142914D01*
X264787914Y-193285771D01*
X266002200Y-192785771D02*
X266359343Y-193785771D01*
X266716485Y-192785771D01*
X267287914Y-193642914D02*
X267359342Y-193714343D01*
X267287914Y-193785771D01*
X267216485Y-193714343D01*
X267287914Y-193642914D01*
X267287914Y-193785771D01*
X267287914Y-192857200D02*
X267359342Y-192928629D01*
X267287914Y-193000057D01*
X267216485Y-192928629D01*
X267287914Y-192857200D01*
X267287914Y-193000057D01*
D10*
D11*
X178287914Y-193714343D02*
X178502200Y-193785771D01*
X178859343Y-193785771D01*
X179002200Y-193714343D01*
X179073629Y-193642914D01*
X179145057Y-193500057D01*
X179145057Y-193357200D01*
X179073629Y-193214343D01*
X179002200Y-193142914D01*
X178859343Y-193071486D01*
X178573629Y-193000057D01*
X178430771Y-192928629D01*
X178359343Y-192857200D01*
X178287914Y-192714343D01*
X178287914Y-192571486D01*
X178359343Y-192428629D01*
X178430771Y-192357200D01*
X178573629Y-192285771D01*
X178930771Y-192285771D01*
X179145057Y-192357200D01*
X179787914Y-193785771D02*
X179787914Y-192785771D01*
X179787914Y-192285771D02*
X179716485Y-192357200D01*
X179787914Y-192428629D01*
X179859342Y-192357200D01*
X179787914Y-192285771D01*
X179787914Y-192428629D01*
X180359343Y-192785771D02*
X181145057Y-192785771D01*
X180359343Y-193785771D01*
X181145057Y-193785771D01*
X182287914Y-193714343D02*
X182145057Y-193785771D01*
X181859343Y-193785771D01*
X181716486Y-193714343D01*
X181645057Y-193571486D01*
X181645057Y-193000057D01*
X181716486Y-192857200D01*
X181859343Y-192785771D01*
X182145057Y-192785771D01*
X182287914Y-192857200D01*
X182359343Y-193000057D01*
X182359343Y-193142914D01*
X181645057Y-193285771D01*
X183002200Y-193642914D02*
X183073628Y-193714343D01*
X183002200Y-193785771D01*
X182930771Y-193714343D01*
X183002200Y-193642914D01*
X183002200Y-193785771D01*
X183002200Y-192857200D02*
X183073628Y-192928629D01*
X183002200Y-193000057D01*
X182930771Y-192928629D01*
X183002200Y-192857200D01*
X183002200Y-193000057D01*
X184787914Y-193357200D02*
X185502200Y-193357200D01*
X184645057Y-193785771D02*
X185145057Y-192285771D01*
X185645057Y-193785771D01*
X186787914Y-192785771D02*
X186787914Y-193785771D01*
X186430771Y-192214343D02*
X186073628Y-193285771D01*
X187002200Y-193285771D01*
D10*
D11*
X263359343Y-196585771D02*
X263359343Y-195085771D01*
X264716486Y-196585771D02*
X264716486Y-195085771D01*
X264716486Y-196514343D02*
X264573629Y-196585771D01*
X264287915Y-196585771D01*
X264145057Y-196514343D01*
X264073629Y-196442914D01*
X264002200Y-196300057D01*
X264002200Y-195871486D01*
X264073629Y-195728629D01*
X264145057Y-195657200D01*
X264287915Y-195585771D01*
X264573629Y-195585771D01*
X264716486Y-195657200D01*
X265430772Y-196442914D02*
X265502200Y-196514343D01*
X265430772Y-196585771D01*
X265359343Y-196514343D01*
X265430772Y-196442914D01*
X265430772Y-196585771D01*
X265430772Y-195657200D02*
X265502200Y-195728629D01*
X265430772Y-195800057D01*
X265359343Y-195728629D01*
X265430772Y-195657200D01*
X265430772Y-195800057D01*
X268073629Y-196585771D02*
X267216486Y-196585771D01*
X267645058Y-196585771D02*
X267645058Y-195085771D01*
X267502201Y-195300057D01*
X267359343Y-195442914D01*
X267216486Y-195514343D01*
X269787914Y-195014343D02*
X268502200Y-196942914D01*
X271073629Y-196585771D02*
X270216486Y-196585771D01*
X270645058Y-196585771D02*
X270645058Y-195085771D01*
X270502201Y-195300057D01*
X270359343Y-195442914D01*
X270216486Y-195514343D01*
D10*
D11*
X177002200Y-187507200D02*
X285002200Y-187507200D01*
D10*
D13*
X178454581Y-188211962D02*
X179597438Y-188211962D01*
X178776010Y-190211962D02*
X179026010Y-188211962D01*
X180014105Y-190211962D02*
X180180771Y-188878629D01*
X180264105Y-188211962D02*
X180156962Y-188307200D01*
X180240295Y-188402438D01*
X180347439Y-188307200D01*
X180264105Y-188211962D01*
X180240295Y-188402438D01*
X180847438Y-188878629D02*
X181609343Y-188878629D01*
X181216486Y-188211962D02*
X181002200Y-189926248D01*
X181073630Y-190116724D01*
X181252201Y-190211962D01*
X181442677Y-190211962D01*
X182395058Y-190211962D02*
X182216487Y-190116724D01*
X182145057Y-189926248D01*
X182359343Y-188211962D01*
X183930772Y-190116724D02*
X183728391Y-190211962D01*
X183347439Y-190211962D01*
X183168867Y-190116724D01*
X183097438Y-189926248D01*
X183192676Y-189164343D01*
X183311724Y-188973867D01*
X183514105Y-188878629D01*
X183895057Y-188878629D01*
X184073629Y-188973867D01*
X184145057Y-189164343D01*
X184121248Y-189354819D01*
X183145057Y-189545295D01*
X184895057Y-190021486D02*
X184978392Y-190116724D01*
X184871248Y-190211962D01*
X184787915Y-190116724D01*
X184895057Y-190021486D01*
X184871248Y-190211962D01*
X185026010Y-188973867D02*
X185109344Y-189069105D01*
X185002200Y-189164343D01*
X184918867Y-189069105D01*
X185026010Y-188973867D01*
X185002200Y-189164343D01*
D10*
D11*
X178859343Y-185600057D02*
X178359343Y-185600057D01*
X178359343Y-186385771D02*
X178359343Y-184885771D01*
X179073629Y-184885771D01*
X179645057Y-186385771D02*
X179645057Y-185385771D01*
X179645057Y-184885771D02*
X179573628Y-184957200D01*
X179645057Y-185028629D01*
X179716485Y-184957200D01*
X179645057Y-184885771D01*
X179645057Y-185028629D01*
X180573629Y-186385771D02*
X180430771Y-186314343D01*
X180359343Y-186171486D01*
X180359343Y-184885771D01*
X181716485Y-186314343D02*
X181573628Y-186385771D01*
X181287914Y-186385771D01*
X181145057Y-186314343D01*
X181073628Y-186171486D01*
X181073628Y-185600057D01*
X181145057Y-185457200D01*
X181287914Y-185385771D01*
X181573628Y-185385771D01*
X181716485Y-185457200D01*
X181787914Y-185600057D01*
X181787914Y-185742914D01*
X181073628Y-185885771D01*
X182430771Y-186242914D02*
X182502199Y-186314343D01*
X182430771Y-186385771D01*
X182359342Y-186314343D01*
X182430771Y-186242914D01*
X182430771Y-186385771D01*
X182430771Y-185457200D02*
X182502199Y-185528629D01*
X182430771Y-185600057D01*
X182359342Y-185528629D01*
X182430771Y-185457200D01*
X182430771Y-185600057D01*
X184287914Y-186385771D02*
X184287914Y-184885771D01*
X184287914Y-185600057D02*
X185145057Y-185600057D01*
X185145057Y-186385771D02*
X185145057Y-184885771D01*
X185502200Y-186528629D02*
X186645057Y-186528629D01*
X187502200Y-185600057D02*
X187716486Y-185671486D01*
X187787914Y-185742914D01*
X187859343Y-185885771D01*
X187859343Y-186100057D01*
X187787914Y-186242914D01*
X187716486Y-186314343D01*
X187573628Y-186385771D01*
X187002200Y-186385771D01*
X187002200Y-184885771D01*
X187502200Y-184885771D01*
X187645057Y-184957200D01*
X187716486Y-185028629D01*
X187787914Y-185171486D01*
X187787914Y-185314343D01*
X187716486Y-185457200D01*
X187645057Y-185528629D01*
X187502200Y-185600057D01*
X187002200Y-185600057D01*
X188502200Y-186385771D02*
X188502200Y-185385771D01*
X188502200Y-185671486D02*
X188573628Y-185528629D01*
X188645057Y-185457200D01*
X188787914Y-185385771D01*
X188930771Y-185385771D01*
X189430771Y-186385771D02*
X189430771Y-185385771D01*
X189430771Y-184885771D02*
X189359342Y-184957200D01*
X189430771Y-185028629D01*
X189502199Y-184957200D01*
X189430771Y-184885771D01*
X189430771Y-185028629D01*
X190787914Y-186385771D02*
X190787914Y-184885771D01*
X190787914Y-186314343D02*
X190645057Y-186385771D01*
X190359343Y-186385771D01*
X190216485Y-186314343D01*
X190145057Y-186242914D01*
X190073628Y-186100057D01*
X190073628Y-185671486D01*
X190145057Y-185528629D01*
X190216485Y-185457200D01*
X190359343Y-185385771D01*
X190645057Y-185385771D01*
X190787914Y-185457200D01*
X192145057Y-185385771D02*
X192145057Y-186600057D01*
X192073628Y-186742914D01*
X192002200Y-186814343D01*
X191859343Y-186885771D01*
X191645057Y-186885771D01*
X191502200Y-186814343D01*
X192145057Y-186314343D02*
X192002200Y-186385771D01*
X191716486Y-186385771D01*
X191573628Y-186314343D01*
X191502200Y-186242914D01*
X191430771Y-186100057D01*
X191430771Y-185671486D01*
X191502200Y-185528629D01*
X191573628Y-185457200D01*
X191716486Y-185385771D01*
X192002200Y-185385771D01*
X192145057Y-185457200D01*
X193430771Y-186314343D02*
X193287914Y-186385771D01*
X193002200Y-186385771D01*
X192859343Y-186314343D01*
X192787914Y-186171486D01*
X192787914Y-185600057D01*
X192859343Y-185457200D01*
X193002200Y-185385771D01*
X193287914Y-185385771D01*
X193430771Y-185457200D01*
X193502200Y-185600057D01*
X193502200Y-185742914D01*
X192787914Y-185885771D01*
X194145057Y-186242914D02*
X194216485Y-186314343D01*
X194145057Y-186385771D01*
X194073628Y-186314343D01*
X194145057Y-186242914D01*
X194145057Y-186385771D01*
X194859343Y-186385771D02*
X194859343Y-184885771D01*
X195002200Y-185814343D02*
X195430771Y-186385771D01*
X195430771Y-185385771D02*
X194859343Y-185957200D01*
X196073629Y-186385771D02*
X196073629Y-185385771D01*
X196073629Y-184885771D02*
X196002200Y-184957200D01*
X196073629Y-185028629D01*
X196145057Y-184957200D01*
X196073629Y-184885771D01*
X196073629Y-185028629D01*
X197430772Y-186314343D02*
X197287915Y-186385771D01*
X197002201Y-186385771D01*
X196859343Y-186314343D01*
X196787915Y-186242914D01*
X196716486Y-186100057D01*
X196716486Y-185671486D01*
X196787915Y-185528629D01*
X196859343Y-185457200D01*
X197002201Y-185385771D01*
X197287915Y-185385771D01*
X197430772Y-185457200D01*
X198716486Y-186385771D02*
X198716486Y-185600057D01*
X198645057Y-185457200D01*
X198502200Y-185385771D01*
X198216486Y-185385771D01*
X198073629Y-185457200D01*
X198716486Y-186314343D02*
X198573629Y-186385771D01*
X198216486Y-186385771D01*
X198073629Y-186314343D01*
X198002200Y-186171486D01*
X198002200Y-186028629D01*
X198073629Y-185885771D01*
X198216486Y-185814343D01*
X198573629Y-185814343D01*
X198716486Y-185742914D01*
X200073629Y-186385771D02*
X200073629Y-184885771D01*
X200073629Y-186314343D02*
X199930772Y-186385771D01*
X199645058Y-186385771D01*
X199502200Y-186314343D01*
X199430772Y-186242914D01*
X199359343Y-186100057D01*
X199359343Y-185671486D01*
X199430772Y-185528629D01*
X199502200Y-185457200D01*
X199645058Y-185385771D01*
X199930772Y-185385771D01*
X200073629Y-185457200D01*
X200430772Y-186528629D02*
X201573629Y-186528629D01*
X201930772Y-185385771D02*
X201930772Y-186885771D01*
X201930772Y-185457200D02*
X202073629Y-185385771D01*
X202359343Y-185385771D01*
X202502200Y-185457200D01*
X202573629Y-185528629D01*
X202645058Y-185671486D01*
X202645058Y-186100057D01*
X202573629Y-186242914D01*
X202502200Y-186314343D01*
X202359343Y-186385771D01*
X202073629Y-186385771D01*
X201930772Y-186314343D01*
X203930772Y-186314343D02*
X203787915Y-186385771D01*
X203502201Y-186385771D01*
X203359343Y-186314343D01*
X203287915Y-186242914D01*
X203216486Y-186100057D01*
X203216486Y-185671486D01*
X203287915Y-185528629D01*
X203359343Y-185457200D01*
X203502201Y-185385771D01*
X203787915Y-185385771D01*
X203930772Y-185457200D01*
X204573629Y-186385771D02*
X204573629Y-184885771D01*
X204573629Y-185457200D02*
X204716486Y-185385771D01*
X205002200Y-185385771D01*
X205145057Y-185457200D01*
X205216486Y-185528629D01*
X205287915Y-185671486D01*
X205287915Y-186100057D01*
X205216486Y-186242914D01*
X205145057Y-186314343D01*
X205002200Y-186385771D01*
X204716486Y-186385771D01*
X204573629Y-186314343D01*
D10*
D11*
X177002200Y-181507200D02*
X285002200Y-181507200D01*
D10*
D11*
X178287914Y-183614343D02*
X178502200Y-183685771D01*
X178859343Y-183685771D01*
X179002200Y-183614343D01*
X179073629Y-183542914D01*
X179145057Y-183400057D01*
X179145057Y-183257200D01*
X179073629Y-183114343D01*
X179002200Y-183042914D01*
X178859343Y-182971486D01*
X178573629Y-182900057D01*
X178430771Y-182828629D01*
X178359343Y-182757200D01*
X178287914Y-182614343D01*
X178287914Y-182471486D01*
X178359343Y-182328629D01*
X178430771Y-182257200D01*
X178573629Y-182185771D01*
X178930771Y-182185771D01*
X179145057Y-182257200D01*
X179787914Y-183685771D02*
X179787914Y-182185771D01*
X180430771Y-183685771D02*
X180430771Y-182900057D01*
X180359342Y-182757200D01*
X180216485Y-182685771D01*
X180002200Y-182685771D01*
X179859342Y-182757200D01*
X179787914Y-182828629D01*
X181716485Y-183614343D02*
X181573628Y-183685771D01*
X181287914Y-183685771D01*
X181145057Y-183614343D01*
X181073628Y-183471486D01*
X181073628Y-182900057D01*
X181145057Y-182757200D01*
X181287914Y-182685771D01*
X181573628Y-182685771D01*
X181716485Y-182757200D01*
X181787914Y-182900057D01*
X181787914Y-183042914D01*
X181073628Y-183185771D01*
X183002199Y-183614343D02*
X182859342Y-183685771D01*
X182573628Y-183685771D01*
X182430771Y-183614343D01*
X182359342Y-183471486D01*
X182359342Y-182900057D01*
X182430771Y-182757200D01*
X182573628Y-182685771D01*
X182859342Y-182685771D01*
X183002199Y-182757200D01*
X183073628Y-182900057D01*
X183073628Y-183042914D01*
X182359342Y-183185771D01*
X183502199Y-182685771D02*
X184073628Y-182685771D01*
X183716485Y-182185771D02*
X183716485Y-183471486D01*
X183787913Y-183614343D01*
X183930771Y-183685771D01*
X184073628Y-183685771D01*
X184573628Y-183542914D02*
X184645056Y-183614343D01*
X184573628Y-183685771D01*
X184502199Y-183614343D01*
X184573628Y-183542914D01*
X184573628Y-183685771D01*
X184573628Y-182757200D02*
X184645056Y-182828629D01*
X184573628Y-182900057D01*
X184502199Y-182828629D01*
X184573628Y-182757200D01*
X184573628Y-182900057D01*
D10*
D11*
X197002200Y-191507200D02*
X197002200Y-194507200D01*
D10*
D11*
X261002200Y-191507200D02*
X261002200Y-198007200D01*
X185670000Y-117570000D02*
X185670000Y-72200000D01*
X132440000Y-117570000D02*
X185670000Y-117570000D01*
X132440000Y-55320000D02*
X132440000Y-117570000D01*
X133830000Y-55320000D02*
X132440000Y-55320000D01*
X185620000Y-55320000D02*
X133830000Y-55320000D01*
X185620000Y-55930000D02*
X185620000Y-55320000D01*
X185620000Y-57070000D02*
X185620000Y-55930000D01*
X185620000Y-58050000D02*
X185620000Y-57070000D01*
X185620000Y-72900000D02*
X185620000Y-58050000D01*
D14*
X135520000Y-58590000D03*
X181340000Y-58530000D03*
D15*
X163600000Y-62220000D03*
X166140000Y-62220000D03*
X168680000Y-62220000D03*
X154060000Y-62230000D03*
X156600000Y-62230000D03*
X148110000Y-62230000D03*
X145570000Y-62230000D03*
X143030000Y-62230000D03*
X140490000Y-62230000D03*
X178930000Y-85110000D03*
X178930000Y-82570000D03*
X178930000Y-80030000D03*
X178930000Y-77490000D03*
X178930000Y-74950000D03*
X178930000Y-72410000D03*
X174960000Y-65870000D03*
X174960000Y-63330000D03*
X174960000Y-60790000D03*
X147410000Y-110640000D03*
X144870000Y-110640000D03*
X142330000Y-110640000D03*
X139790000Y-110640000D03*
X137250000Y-110640000D03*
D16*
X140190000Y-94390000D03*
X140190000Y-89290000D03*
D17*
X150690000Y-80620000D03*
X150690000Y-82520000D03*
X145690000Y-80620000D03*
X145690000Y-82520000D03*
X147290000Y-95860000D03*
X147290000Y-93960000D03*
X172450000Y-69520000D03*
X172450000Y-71420000D03*
X168900000Y-69570000D03*
X168900000Y-71470000D03*
X165050000Y-71400000D03*
X165050000Y-73300000D03*
D18*
X149800000Y-100900000D03*
X151070000Y-95820000D03*
X152340000Y-100900000D03*
X153610000Y-95820000D03*
X154880000Y-100900000D03*
X156150000Y-95820000D03*
X157420000Y-100900000D03*
X158690000Y-95820000D03*
X159960000Y-100900000D03*
X161230000Y-95820000D03*
X162500000Y-100900000D03*
X163770000Y-95820000D03*
X165040000Y-100900000D03*
X166310000Y-95820000D03*
X167580000Y-100900000D03*
D19*
X158760000Y-78770000D03*
D14*
X180160000Y-112820000D03*
D20*
X149530000Y-85330000D03*
X168490000Y-74900000D03*
X168900000Y-71470000D03*
X172500000Y-71460000D03*
X171050000Y-95920000D03*
X171100000Y-100810000D03*
D21*
X150650000Y-68770000D03*
X175370000Y-95820000D03*
X176020000Y-100750000D03*
D20*
X160050000Y-99170000D03*
X166330000Y-87650000D03*
X170570000Y-90610000D03*
X165050000Y-68920000D03*
X166160000Y-90550000D03*
X168900000Y-67700000D03*
X157490000Y-98120000D03*
X166680000Y-91560000D03*
X172490000Y-67150000D03*
X172110000Y-64990000D03*
X157250000Y-74660000D03*
X143960000Y-90680000D03*
X142270000Y-82620000D03*
X145650000Y-80690000D03*
X137070000Y-66190000D03*
X142280000Y-88820000D03*
X138360000Y-105170000D03*
X141040000Y-83410000D03*
X148360000Y-82500000D03*
X150690000Y-87480000D03*
X139710000Y-104810000D03*
X143990000Y-77810000D03*
X146450000Y-89000000D03*
X147410000Y-102790000D03*
X148620000Y-92580000D03*
X146850000Y-66680000D03*
D22*
X158690000Y-95820000D02*
X158640000Y-95820000D01*
X158640000Y-95820000D02*
X157230000Y-97230000D01*
X149530000Y-96410000D02*
X149530000Y-85330000D01*
X150350000Y-97230000D02*
X149530000Y-96410000D01*
X157230000Y-97230000D02*
X150350000Y-97230000D01*
X158690000Y-95820000D02*
X158660000Y-95820000D01*
X165050000Y-73300000D02*
X166890000Y-73300000D01*
X166890000Y-73300000D02*
X168490000Y-74900000D01*
X172500000Y-71460000D02*
X172460000Y-71420000D01*
X172460000Y-71420000D02*
X172450000Y-71420000D01*
D23*
X171100000Y-95970000D02*
X171100000Y-100810000D01*
X171100000Y-95970000D02*
X171050000Y-95920000D01*
X156240000Y-93350000D02*
X168480000Y-93350000D01*
X168480000Y-93350000D02*
X171070000Y-95940000D01*
X151340000Y-68080000D02*
X154060000Y-68080000D01*
X150650000Y-68770000D02*
X151340000Y-68080000D01*
X154060000Y-62230000D02*
X154060000Y-68080000D01*
X154060000Y-68080000D02*
X154060000Y-91170000D01*
X154060000Y-91170000D02*
X156240000Y-93350000D01*
X153610000Y-95820000D02*
X153610000Y-94760000D01*
X155020000Y-93350000D02*
X156240000Y-93350000D01*
X153610000Y-94760000D02*
X155020000Y-93350000D01*
X178930000Y-82570000D02*
X177200000Y-82570000D01*
X175370000Y-84400000D02*
X175370000Y-95820000D01*
X177200000Y-82570000D02*
X175370000Y-84400000D01*
X178930000Y-85110000D02*
X178930000Y-97840000D01*
X178930000Y-97840000D02*
X176020000Y-100750000D01*
D24*
X154880000Y-100900000D02*
X154880000Y-100850000D01*
X154880000Y-100850000D02*
X156560000Y-99170000D01*
X156560000Y-99170000D02*
X160050000Y-99170000D01*
X163770000Y-95820000D02*
X163860000Y-95820000D01*
X163860000Y-95820000D02*
X165410000Y-97370000D01*
X163000000Y-71460000D02*
X165050000Y-69410000D01*
X163000000Y-84320000D02*
X163000000Y-71460000D01*
X166330000Y-87650000D02*
X163000000Y-84320000D01*
X172750000Y-92790000D02*
X170570000Y-90610000D01*
X172750000Y-101440000D02*
X172750000Y-92790000D01*
X171980000Y-102210000D02*
X172750000Y-101440000D01*
X170210000Y-102210000D02*
X171980000Y-102210000D01*
X169540000Y-101540000D02*
X170210000Y-102210000D01*
X169540000Y-99410000D02*
X169540000Y-101540000D01*
X167500000Y-97370000D02*
X169540000Y-99410000D01*
X165410000Y-97370000D02*
X167500000Y-97370000D01*
D22*
X165050000Y-68920000D02*
X165050000Y-69410000D01*
X165050000Y-69410000D02*
X165050000Y-71400000D01*
D24*
X154880000Y-100900000D02*
X154880000Y-100830000D01*
X170610000Y-71280000D02*
X168900000Y-69570000D01*
X166160000Y-90550000D02*
X170610000Y-86100000D01*
X170610000Y-86100000D02*
X170610000Y-71280000D01*
D22*
X168900000Y-67700000D02*
X168900000Y-69570000D01*
D24*
X157420000Y-100900000D02*
X157630000Y-100900000D01*
X162500000Y-100900000D02*
X162500000Y-99220000D01*
X161400000Y-98120000D02*
X157490000Y-98120000D01*
X162500000Y-99220000D02*
X161400000Y-98120000D01*
X166680000Y-91560000D02*
X173810000Y-84430000D01*
X173810000Y-84430000D02*
X173810000Y-69120000D01*
X173810000Y-69120000D02*
X172450000Y-67760000D01*
D22*
X172450000Y-67190000D02*
X172450000Y-67760000D01*
X172450000Y-67760000D02*
X172450000Y-69520000D01*
X172490000Y-67150000D02*
X172450000Y-67190000D01*
X166920000Y-64990000D02*
X172110000Y-64990000D01*
X157250000Y-74660000D02*
X166920000Y-64990000D01*
X147290000Y-95860000D02*
X147290000Y-96960000D01*
X143960000Y-96600000D02*
X143960000Y-90680000D01*
X144820000Y-97460000D02*
X143960000Y-96600000D01*
X146790000Y-97460000D02*
X144820000Y-97460000D01*
X147290000Y-96960000D02*
X146790000Y-97460000D01*
X145720000Y-80620000D02*
X145650000Y-80690000D01*
X145720000Y-80620000D02*
X150690000Y-80620000D01*
X139140000Y-64120000D02*
X145570000Y-64120000D01*
X137070000Y-66190000D02*
X139140000Y-64120000D01*
D24*
X142270000Y-88810000D02*
X142270000Y-82620000D01*
X142280000Y-88820000D02*
X142270000Y-88810000D01*
X145570000Y-68400000D02*
X145570000Y-64120000D01*
X145570000Y-64120000D02*
X145570000Y-62230000D01*
X142270000Y-71700000D02*
X145570000Y-68400000D01*
X142270000Y-82620000D02*
X142270000Y-71700000D01*
X150690000Y-82520000D02*
X148380000Y-82520000D01*
X138360000Y-86090000D02*
X138360000Y-105170000D01*
X141040000Y-83410000D02*
X138360000Y-86090000D01*
X148380000Y-82520000D02*
X148360000Y-82500000D01*
X150690000Y-82520000D02*
X150690000Y-87480000D01*
X145690000Y-82520000D02*
X144690000Y-82520000D01*
X144870000Y-109970000D02*
X144870000Y-110640000D01*
X139710000Y-104810000D02*
X144870000Y-109970000D01*
X143990000Y-81820000D02*
X143990000Y-77810000D01*
X144690000Y-82520000D02*
X143990000Y-81820000D01*
X145690000Y-82520000D02*
X145690000Y-88240000D01*
X145690000Y-88240000D02*
X146450000Y-89000000D01*
D22*
X148940000Y-95610000D02*
X147290000Y-93960000D01*
X148940000Y-97790000D02*
X148940000Y-95610000D01*
X147470000Y-99260000D02*
X148940000Y-97790000D01*
X147470000Y-102730000D02*
X147470000Y-99260000D01*
X147410000Y-102790000D02*
X147470000Y-102730000D01*
D24*
X147290000Y-93960000D02*
X147290000Y-93910000D01*
X147380000Y-93870000D02*
X148710000Y-92540000D01*
D22*
X146870000Y-66660000D02*
X148110000Y-66660000D01*
X146850000Y-66680000D02*
X146870000Y-66660000D01*
D24*
X159960000Y-100900000D02*
X159960000Y-100920000D01*
X159960000Y-100920000D02*
X157190000Y-103690000D01*
X157190000Y-103690000D02*
X145630000Y-103690000D01*
X145630000Y-103690000D02*
X143110000Y-101170000D01*
X143110000Y-101170000D02*
X143110000Y-76440000D01*
X143110000Y-76440000D02*
X148110000Y-71440000D01*
X148110000Y-71440000D02*
X148110000Y-66660000D01*
X148110000Y-66660000D02*
X148110000Y-62230000D01*
M02*
