G04 #@! TF.FileFunction,Legend,Top*
%FSLAX46Y46*%
G04 Gerber Fmt 4.6, Leading zero omitted, Abs format (unit mm)*
G04 Created by KiCad (PCBNEW 4.0.1-stable) date 2/4/2016 7:17:40 PM*
%MOMM*%
G01*
G04 APERTURE LIST*
%ADD10C,0.100000*%
%ADD11C,0.150000*%
%ADD12C,0.300000*%
%ADD13C,0.400000*%
%ADD14C,0.200000*%
G04 APERTURE END LIST*
D10*
D11*
X177002200Y-166007200D02*
X177002200Y-198007200D01*
X285002200Y-198007200D01*
X285002200Y-166007200D01*
X177002200Y-166007200D01*
D10*
D11*
X10000000Y-10000000D02*
X10000000Y-200007200D01*
X287002200Y-200007200D01*
X287002200Y-10000000D01*
X10000000Y-10000000D01*
D10*
D11*
X12000000Y-12000000D02*
X12000000Y-198007200D01*
X285002200Y-198007200D01*
X285002200Y-12000000D01*
X12000000Y-12000000D01*
D10*
D11*
X60000000Y-12000000D02*
X60000000Y-10000000D01*
D10*
D11*
X110000000Y-12000000D02*
X110000000Y-10000000D01*
D10*
D11*
X160000000Y-12000000D02*
X160000000Y-10000000D01*
D10*
D11*
X210000000Y-12000000D02*
X210000000Y-10000000D01*
D10*
D11*
X260000000Y-12000000D02*
X260000000Y-10000000D01*
D10*
D11*
X35990476Y-11588095D02*
X35247619Y-11588095D01*
X35619048Y-11588095D02*
X35619048Y-10288095D01*
X35495238Y-10473810D01*
X35371429Y-10597619D01*
X35247619Y-10659524D01*
D10*
D11*
X85247619Y-10411905D02*
X85309524Y-10350000D01*
X85433333Y-10288095D01*
X85742857Y-10288095D01*
X85866667Y-10350000D01*
X85928571Y-10411905D01*
X85990476Y-10535714D01*
X85990476Y-10659524D01*
X85928571Y-10845238D01*
X85185714Y-11588095D01*
X85990476Y-11588095D01*
D10*
D11*
X135185714Y-10288095D02*
X135990476Y-10288095D01*
X135557143Y-10783333D01*
X135742857Y-10783333D01*
X135866667Y-10845238D01*
X135928571Y-10907143D01*
X135990476Y-11030952D01*
X135990476Y-11340476D01*
X135928571Y-11464286D01*
X135866667Y-11526190D01*
X135742857Y-11588095D01*
X135371429Y-11588095D01*
X135247619Y-11526190D01*
X135185714Y-11464286D01*
D10*
D11*
X185866667Y-10721429D02*
X185866667Y-11588095D01*
X185557143Y-10226190D02*
X185247619Y-11154762D01*
X186052381Y-11154762D01*
D10*
D11*
X235928571Y-10288095D02*
X235309524Y-10288095D01*
X235247619Y-10907143D01*
X235309524Y-10845238D01*
X235433333Y-10783333D01*
X235742857Y-10783333D01*
X235866667Y-10845238D01*
X235928571Y-10907143D01*
X235990476Y-11030952D01*
X235990476Y-11340476D01*
X235928571Y-11464286D01*
X235866667Y-11526190D01*
X235742857Y-11588095D01*
X235433333Y-11588095D01*
X235309524Y-11526190D01*
X235247619Y-11464286D01*
D10*
D11*
X285866667Y-10288095D02*
X285619048Y-10288095D01*
X285495238Y-10350000D01*
X285433333Y-10411905D01*
X285309524Y-10597619D01*
X285247619Y-10845238D01*
X285247619Y-11340476D01*
X285309524Y-11464286D01*
X285371429Y-11526190D01*
X285495238Y-11588095D01*
X285742857Y-11588095D01*
X285866667Y-11526190D01*
X285928571Y-11464286D01*
X285990476Y-11340476D01*
X285990476Y-11030952D01*
X285928571Y-10907143D01*
X285866667Y-10845238D01*
X285742857Y-10783333D01*
X285495238Y-10783333D01*
X285371429Y-10845238D01*
X285309524Y-10907143D01*
X285247619Y-11030952D01*
D10*
D11*
X60000000Y-198007200D02*
X60000000Y-200007200D01*
D10*
D11*
X110000000Y-198007200D02*
X110000000Y-200007200D01*
D10*
D11*
X160000000Y-198007200D02*
X160000000Y-200007200D01*
D10*
D11*
X210000000Y-198007200D02*
X210000000Y-200007200D01*
D10*
D11*
X260000000Y-198007200D02*
X260000000Y-200007200D01*
D10*
D11*
X35990476Y-199595295D02*
X35247619Y-199595295D01*
X35619048Y-199595295D02*
X35619048Y-198295295D01*
X35495238Y-198481010D01*
X35371429Y-198604819D01*
X35247619Y-198666724D01*
D10*
D11*
X85247619Y-198419105D02*
X85309524Y-198357200D01*
X85433333Y-198295295D01*
X85742857Y-198295295D01*
X85866667Y-198357200D01*
X85928571Y-198419105D01*
X85990476Y-198542914D01*
X85990476Y-198666724D01*
X85928571Y-198852438D01*
X85185714Y-199595295D01*
X85990476Y-199595295D01*
D10*
D11*
X135185714Y-198295295D02*
X135990476Y-198295295D01*
X135557143Y-198790533D01*
X135742857Y-198790533D01*
X135866667Y-198852438D01*
X135928571Y-198914343D01*
X135990476Y-199038152D01*
X135990476Y-199347676D01*
X135928571Y-199471486D01*
X135866667Y-199533390D01*
X135742857Y-199595295D01*
X135371429Y-199595295D01*
X135247619Y-199533390D01*
X135185714Y-199471486D01*
D10*
D11*
X185866667Y-198728629D02*
X185866667Y-199595295D01*
X185557143Y-198233390D02*
X185247619Y-199161962D01*
X186052381Y-199161962D01*
D10*
D11*
X235928571Y-198295295D02*
X235309524Y-198295295D01*
X235247619Y-198914343D01*
X235309524Y-198852438D01*
X235433333Y-198790533D01*
X235742857Y-198790533D01*
X235866667Y-198852438D01*
X235928571Y-198914343D01*
X235990476Y-199038152D01*
X235990476Y-199347676D01*
X235928571Y-199471486D01*
X235866667Y-199533390D01*
X235742857Y-199595295D01*
X235433333Y-199595295D01*
X235309524Y-199533390D01*
X235247619Y-199471486D01*
D10*
D11*
X285866667Y-198295295D02*
X285619048Y-198295295D01*
X285495238Y-198357200D01*
X285433333Y-198419105D01*
X285309524Y-198604819D01*
X285247619Y-198852438D01*
X285247619Y-199347676D01*
X285309524Y-199471486D01*
X285371429Y-199533390D01*
X285495238Y-199595295D01*
X285742857Y-199595295D01*
X285866667Y-199533390D01*
X285928571Y-199471486D01*
X285990476Y-199347676D01*
X285990476Y-199038152D01*
X285928571Y-198914343D01*
X285866667Y-198852438D01*
X285742857Y-198790533D01*
X285495238Y-198790533D01*
X285371429Y-198852438D01*
X285309524Y-198914343D01*
X285247619Y-199038152D01*
D10*
D11*
X10000000Y-60000000D02*
X12000000Y-60000000D01*
D10*
D11*
X10000000Y-110000000D02*
X12000000Y-110000000D01*
D10*
D11*
X10000000Y-160000000D02*
X12000000Y-160000000D01*
D10*
D11*
X10690476Y-35216667D02*
X11309524Y-35216667D01*
X10566667Y-35588095D02*
X11000000Y-34288095D01*
X11433333Y-35588095D01*
D10*
D11*
X11092857Y-84907143D02*
X11278571Y-84969048D01*
X11340476Y-85030952D01*
X11402381Y-85154762D01*
X11402381Y-85340476D01*
X11340476Y-85464286D01*
X11278571Y-85526190D01*
X11154762Y-85588095D01*
X10659524Y-85588095D01*
X10659524Y-84288095D01*
X11092857Y-84288095D01*
X11216667Y-84350000D01*
X11278571Y-84411905D01*
X11340476Y-84535714D01*
X11340476Y-84659524D01*
X11278571Y-84783333D01*
X11216667Y-84845238D01*
X11092857Y-84907143D01*
X10659524Y-84907143D01*
D10*
D11*
X11402381Y-135464286D02*
X11340476Y-135526190D01*
X11154762Y-135588095D01*
X11030952Y-135588095D01*
X10845238Y-135526190D01*
X10721429Y-135402381D01*
X10659524Y-135278571D01*
X10597619Y-135030952D01*
X10597619Y-134845238D01*
X10659524Y-134597619D01*
X10721429Y-134473810D01*
X10845238Y-134350000D01*
X11030952Y-134288095D01*
X11154762Y-134288095D01*
X11340476Y-134350000D01*
X11402381Y-134411905D01*
D10*
D11*
X10659524Y-185588095D02*
X10659524Y-184288095D01*
X10969048Y-184288095D01*
X11154762Y-184350000D01*
X11278571Y-184473810D01*
X11340476Y-184597619D01*
X11402381Y-184845238D01*
X11402381Y-185030952D01*
X11340476Y-185278571D01*
X11278571Y-185402381D01*
X11154762Y-185526190D01*
X10969048Y-185588095D01*
X10659524Y-185588095D01*
D10*
D11*
X287002200Y-60000000D02*
X285002200Y-60000000D01*
D10*
D11*
X287002200Y-110000000D02*
X285002200Y-110000000D01*
D10*
D11*
X287002200Y-160000000D02*
X285002200Y-160000000D01*
D10*
D11*
X285692676Y-35216667D02*
X286311724Y-35216667D01*
X285568867Y-35588095D02*
X286002200Y-34288095D01*
X286435533Y-35588095D01*
D10*
D11*
X286095057Y-84907143D02*
X286280771Y-84969048D01*
X286342676Y-85030952D01*
X286404581Y-85154762D01*
X286404581Y-85340476D01*
X286342676Y-85464286D01*
X286280771Y-85526190D01*
X286156962Y-85588095D01*
X285661724Y-85588095D01*
X285661724Y-84288095D01*
X286095057Y-84288095D01*
X286218867Y-84350000D01*
X286280771Y-84411905D01*
X286342676Y-84535714D01*
X286342676Y-84659524D01*
X286280771Y-84783333D01*
X286218867Y-84845238D01*
X286095057Y-84907143D01*
X285661724Y-84907143D01*
D10*
D11*
X286404581Y-135464286D02*
X286342676Y-135526190D01*
X286156962Y-135588095D01*
X286033152Y-135588095D01*
X285847438Y-135526190D01*
X285723629Y-135402381D01*
X285661724Y-135278571D01*
X285599819Y-135030952D01*
X285599819Y-134845238D01*
X285661724Y-134597619D01*
X285723629Y-134473810D01*
X285847438Y-134350000D01*
X286033152Y-134288095D01*
X286156962Y-134288095D01*
X286342676Y-134350000D01*
X286404581Y-134411905D01*
D10*
D11*
X285661724Y-185588095D02*
X285661724Y-184288095D01*
X285971248Y-184288095D01*
X286156962Y-184350000D01*
X286280771Y-184473810D01*
X286342676Y-184597619D01*
X286404581Y-184845238D01*
X286404581Y-185030952D01*
X286342676Y-185278571D01*
X286280771Y-185402381D01*
X286156962Y-185526190D01*
X285971248Y-185588095D01*
X285661724Y-185588095D01*
D10*
D11*
X200359343Y-193785771D02*
X200359343Y-192285771D01*
X200716486Y-192285771D01*
X200930771Y-192357200D01*
X201073629Y-192500057D01*
X201145057Y-192642914D01*
X201216486Y-192928629D01*
X201216486Y-193142914D01*
X201145057Y-193428629D01*
X201073629Y-193571486D01*
X200930771Y-193714343D01*
X200716486Y-193785771D01*
X200359343Y-193785771D01*
X202502200Y-193785771D02*
X202502200Y-193000057D01*
X202430771Y-192857200D01*
X202287914Y-192785771D01*
X202002200Y-192785771D01*
X201859343Y-192857200D01*
X202502200Y-193714343D02*
X202359343Y-193785771D01*
X202002200Y-193785771D01*
X201859343Y-193714343D01*
X201787914Y-193571486D01*
X201787914Y-193428629D01*
X201859343Y-193285771D01*
X202002200Y-193214343D01*
X202359343Y-193214343D01*
X202502200Y-193142914D01*
X203002200Y-192785771D02*
X203573629Y-192785771D01*
X203216486Y-192285771D02*
X203216486Y-193571486D01*
X203287914Y-193714343D01*
X203430772Y-193785771D01*
X203573629Y-193785771D01*
X204645057Y-193714343D02*
X204502200Y-193785771D01*
X204216486Y-193785771D01*
X204073629Y-193714343D01*
X204002200Y-193571486D01*
X204002200Y-193000057D01*
X204073629Y-192857200D01*
X204216486Y-192785771D01*
X204502200Y-192785771D01*
X204645057Y-192857200D01*
X204716486Y-193000057D01*
X204716486Y-193142914D01*
X204002200Y-193285771D01*
X205359343Y-193642914D02*
X205430771Y-193714343D01*
X205359343Y-193785771D01*
X205287914Y-193714343D01*
X205359343Y-193642914D01*
X205359343Y-193785771D01*
X205359343Y-192857200D02*
X205430771Y-192928629D01*
X205359343Y-193000057D01*
X205287914Y-192928629D01*
X205359343Y-192857200D01*
X205359343Y-193000057D01*
D10*
D11*
X177002200Y-194507200D02*
X285002200Y-194507200D01*
D10*
D11*
X178359343Y-196585771D02*
X178359343Y-195085771D01*
X179216486Y-196585771D02*
X178573629Y-195728629D01*
X179216486Y-195085771D02*
X178359343Y-195942914D01*
X179859343Y-196585771D02*
X179859343Y-195585771D01*
X179859343Y-195085771D02*
X179787914Y-195157200D01*
X179859343Y-195228629D01*
X179930771Y-195157200D01*
X179859343Y-195085771D01*
X179859343Y-195228629D01*
X181430772Y-196442914D02*
X181359343Y-196514343D01*
X181145057Y-196585771D01*
X181002200Y-196585771D01*
X180787915Y-196514343D01*
X180645057Y-196371486D01*
X180573629Y-196228629D01*
X180502200Y-195942914D01*
X180502200Y-195728629D01*
X180573629Y-195442914D01*
X180645057Y-195300057D01*
X180787915Y-195157200D01*
X181002200Y-195085771D01*
X181145057Y-195085771D01*
X181359343Y-195157200D01*
X181430772Y-195228629D01*
X182716486Y-196585771D02*
X182716486Y-195800057D01*
X182645057Y-195657200D01*
X182502200Y-195585771D01*
X182216486Y-195585771D01*
X182073629Y-195657200D01*
X182716486Y-196514343D02*
X182573629Y-196585771D01*
X182216486Y-196585771D01*
X182073629Y-196514343D01*
X182002200Y-196371486D01*
X182002200Y-196228629D01*
X182073629Y-196085771D01*
X182216486Y-196014343D01*
X182573629Y-196014343D01*
X182716486Y-195942914D01*
X184073629Y-196585771D02*
X184073629Y-195085771D01*
X184073629Y-196514343D02*
X183930772Y-196585771D01*
X183645058Y-196585771D01*
X183502200Y-196514343D01*
X183430772Y-196442914D01*
X183359343Y-196300057D01*
X183359343Y-195871486D01*
X183430772Y-195728629D01*
X183502200Y-195657200D01*
X183645058Y-195585771D01*
X183930772Y-195585771D01*
X184073629Y-195657200D01*
X185930772Y-195800057D02*
X186430772Y-195800057D01*
X186645058Y-196585771D02*
X185930772Y-196585771D01*
X185930772Y-195085771D01*
X186645058Y-195085771D01*
X187287915Y-196442914D02*
X187359343Y-196514343D01*
X187287915Y-196585771D01*
X187216486Y-196514343D01*
X187287915Y-196442914D01*
X187287915Y-196585771D01*
X188002201Y-196585771D02*
X188002201Y-195085771D01*
X188359344Y-195085771D01*
X188573629Y-195157200D01*
X188716487Y-195300057D01*
X188787915Y-195442914D01*
X188859344Y-195728629D01*
X188859344Y-195942914D01*
X188787915Y-196228629D01*
X188716487Y-196371486D01*
X188573629Y-196514343D01*
X188359344Y-196585771D01*
X188002201Y-196585771D01*
X189502201Y-196442914D02*
X189573629Y-196514343D01*
X189502201Y-196585771D01*
X189430772Y-196514343D01*
X189502201Y-196442914D01*
X189502201Y-196585771D01*
X190145058Y-196157200D02*
X190859344Y-196157200D01*
X190002201Y-196585771D02*
X190502201Y-195085771D01*
X191002201Y-196585771D01*
X191502201Y-196442914D02*
X191573629Y-196514343D01*
X191502201Y-196585771D01*
X191430772Y-196514343D01*
X191502201Y-196442914D01*
X191502201Y-196585771D01*
X194502201Y-196585771D02*
X194502201Y-195085771D01*
X194645058Y-196014343D02*
X195073629Y-196585771D01*
X195073629Y-195585771D02*
X194502201Y-196157200D01*
X195716487Y-196585771D02*
X195716487Y-195585771D01*
X195716487Y-195085771D02*
X195645058Y-195157200D01*
X195716487Y-195228629D01*
X195787915Y-195157200D01*
X195716487Y-195085771D01*
X195716487Y-195228629D01*
X197073630Y-196514343D02*
X196930773Y-196585771D01*
X196645059Y-196585771D01*
X196502201Y-196514343D01*
X196430773Y-196442914D01*
X196359344Y-196300057D01*
X196359344Y-195871486D01*
X196430773Y-195728629D01*
X196502201Y-195657200D01*
X196645059Y-195585771D01*
X196930773Y-195585771D01*
X197073630Y-195657200D01*
X198359344Y-196585771D02*
X198359344Y-195800057D01*
X198287915Y-195657200D01*
X198145058Y-195585771D01*
X197859344Y-195585771D01*
X197716487Y-195657200D01*
X198359344Y-196514343D02*
X198216487Y-196585771D01*
X197859344Y-196585771D01*
X197716487Y-196514343D01*
X197645058Y-196371486D01*
X197645058Y-196228629D01*
X197716487Y-196085771D01*
X197859344Y-196014343D01*
X198216487Y-196014343D01*
X198359344Y-195942914D01*
X199716487Y-196585771D02*
X199716487Y-195085771D01*
X199716487Y-196514343D02*
X199573630Y-196585771D01*
X199287916Y-196585771D01*
X199145058Y-196514343D01*
X199073630Y-196442914D01*
X199002201Y-196300057D01*
X199002201Y-195871486D01*
X199073630Y-195728629D01*
X199145058Y-195657200D01*
X199287916Y-195585771D01*
X199573630Y-195585771D01*
X199716487Y-195657200D01*
X202216487Y-195585771D02*
X202216487Y-196585771D01*
X201859344Y-195014343D02*
X201502201Y-196085771D01*
X202430773Y-196085771D01*
X203002201Y-196442914D02*
X203073629Y-196514343D01*
X203002201Y-196585771D01*
X202930772Y-196514343D01*
X203002201Y-196442914D01*
X203002201Y-196585771D01*
X204002201Y-195085771D02*
X204145058Y-195085771D01*
X204287915Y-195157200D01*
X204359344Y-195228629D01*
X204430773Y-195371486D01*
X204502201Y-195657200D01*
X204502201Y-196014343D01*
X204430773Y-196300057D01*
X204359344Y-196442914D01*
X204287915Y-196514343D01*
X204145058Y-196585771D01*
X204002201Y-196585771D01*
X203859344Y-196514343D01*
X203787915Y-196442914D01*
X203716487Y-196300057D01*
X203645058Y-196014343D01*
X203645058Y-195657200D01*
X203716487Y-195371486D01*
X203787915Y-195228629D01*
X203859344Y-195157200D01*
X204002201Y-195085771D01*
X205145058Y-196442914D02*
X205216486Y-196514343D01*
X205145058Y-196585771D01*
X205073629Y-196514343D01*
X205145058Y-196442914D01*
X205145058Y-196585771D01*
X206645058Y-196585771D02*
X205787915Y-196585771D01*
X206216487Y-196585771D02*
X206216487Y-195085771D01*
X206073630Y-195300057D01*
X205930772Y-195442914D01*
X205787915Y-195514343D01*
X207287915Y-196014343D02*
X208430772Y-196014343D01*
X209073629Y-196514343D02*
X209216486Y-196585771D01*
X209502201Y-196585771D01*
X209645058Y-196514343D01*
X209716486Y-196371486D01*
X209716486Y-196300057D01*
X209645058Y-196157200D01*
X209502201Y-196085771D01*
X209287915Y-196085771D01*
X209145058Y-196014343D01*
X209073629Y-195871486D01*
X209073629Y-195800057D01*
X209145058Y-195657200D01*
X209287915Y-195585771D01*
X209502201Y-195585771D01*
X209645058Y-195657200D01*
X210145058Y-195585771D02*
X210716487Y-195585771D01*
X210359344Y-195085771D02*
X210359344Y-196371486D01*
X210430772Y-196514343D01*
X210573630Y-196585771D01*
X210716487Y-196585771D01*
X211859344Y-196585771D02*
X211859344Y-195800057D01*
X211787915Y-195657200D01*
X211645058Y-195585771D01*
X211359344Y-195585771D01*
X211216487Y-195657200D01*
X211859344Y-196514343D02*
X211716487Y-196585771D01*
X211359344Y-196585771D01*
X211216487Y-196514343D01*
X211145058Y-196371486D01*
X211145058Y-196228629D01*
X211216487Y-196085771D01*
X211359344Y-196014343D01*
X211716487Y-196014343D01*
X211859344Y-195942914D01*
X212573630Y-196585771D02*
X212573630Y-195085771D01*
X212573630Y-195657200D02*
X212716487Y-195585771D01*
X213002201Y-195585771D01*
X213145058Y-195657200D01*
X213216487Y-195728629D01*
X213287916Y-195871486D01*
X213287916Y-196300057D01*
X213216487Y-196442914D01*
X213145058Y-196514343D01*
X213002201Y-196585771D01*
X212716487Y-196585771D01*
X212573630Y-196514343D01*
X214145059Y-196585771D02*
X214002201Y-196514343D01*
X213930773Y-196371486D01*
X213930773Y-195085771D01*
X215287915Y-196514343D02*
X215145058Y-196585771D01*
X214859344Y-196585771D01*
X214716487Y-196514343D01*
X214645058Y-196371486D01*
X214645058Y-195800057D01*
X214716487Y-195657200D01*
X214859344Y-195585771D01*
X215145058Y-195585771D01*
X215287915Y-195657200D01*
X215359344Y-195800057D01*
X215359344Y-195942914D01*
X214645058Y-196085771D01*
D10*
D11*
X177002200Y-191507200D02*
X285002200Y-191507200D01*
D10*
D12*
X264216486Y-193785771D02*
X263716486Y-193071486D01*
X263359343Y-193785771D02*
X263359343Y-192285771D01*
X263930771Y-192285771D01*
X264073629Y-192357200D01*
X264145057Y-192428629D01*
X264216486Y-192571486D01*
X264216486Y-192785771D01*
X264145057Y-192928629D01*
X264073629Y-193000057D01*
X263930771Y-193071486D01*
X263359343Y-193071486D01*
X265430771Y-193714343D02*
X265287914Y-193785771D01*
X265002200Y-193785771D01*
X264859343Y-193714343D01*
X264787914Y-193571486D01*
X264787914Y-193000057D01*
X264859343Y-192857200D01*
X265002200Y-192785771D01*
X265287914Y-192785771D01*
X265430771Y-192857200D01*
X265502200Y-193000057D01*
X265502200Y-193142914D01*
X264787914Y-193285771D01*
X266002200Y-192785771D02*
X266359343Y-193785771D01*
X266716485Y-192785771D01*
X267287914Y-193642914D02*
X267359342Y-193714343D01*
X267287914Y-193785771D01*
X267216485Y-193714343D01*
X267287914Y-193642914D01*
X267287914Y-193785771D01*
X267287914Y-192857200D02*
X267359342Y-192928629D01*
X267287914Y-193000057D01*
X267216485Y-192928629D01*
X267287914Y-192857200D01*
X267287914Y-193000057D01*
D10*
D11*
X178287914Y-193714343D02*
X178502200Y-193785771D01*
X178859343Y-193785771D01*
X179002200Y-193714343D01*
X179073629Y-193642914D01*
X179145057Y-193500057D01*
X179145057Y-193357200D01*
X179073629Y-193214343D01*
X179002200Y-193142914D01*
X178859343Y-193071486D01*
X178573629Y-193000057D01*
X178430771Y-192928629D01*
X178359343Y-192857200D01*
X178287914Y-192714343D01*
X178287914Y-192571486D01*
X178359343Y-192428629D01*
X178430771Y-192357200D01*
X178573629Y-192285771D01*
X178930771Y-192285771D01*
X179145057Y-192357200D01*
X179787914Y-193785771D02*
X179787914Y-192785771D01*
X179787914Y-192285771D02*
X179716485Y-192357200D01*
X179787914Y-192428629D01*
X179859342Y-192357200D01*
X179787914Y-192285771D01*
X179787914Y-192428629D01*
X180359343Y-192785771D02*
X181145057Y-192785771D01*
X180359343Y-193785771D01*
X181145057Y-193785771D01*
X182287914Y-193714343D02*
X182145057Y-193785771D01*
X181859343Y-193785771D01*
X181716486Y-193714343D01*
X181645057Y-193571486D01*
X181645057Y-193000057D01*
X181716486Y-192857200D01*
X181859343Y-192785771D01*
X182145057Y-192785771D01*
X182287914Y-192857200D01*
X182359343Y-193000057D01*
X182359343Y-193142914D01*
X181645057Y-193285771D01*
X183002200Y-193642914D02*
X183073628Y-193714343D01*
X183002200Y-193785771D01*
X182930771Y-193714343D01*
X183002200Y-193642914D01*
X183002200Y-193785771D01*
X183002200Y-192857200D02*
X183073628Y-192928629D01*
X183002200Y-193000057D01*
X182930771Y-192928629D01*
X183002200Y-192857200D01*
X183002200Y-193000057D01*
X184787914Y-193357200D02*
X185502200Y-193357200D01*
X184645057Y-193785771D02*
X185145057Y-192285771D01*
X185645057Y-193785771D01*
X186787914Y-192785771D02*
X186787914Y-193785771D01*
X186430771Y-192214343D02*
X186073628Y-193285771D01*
X187002200Y-193285771D01*
D10*
D11*
X263359343Y-196585771D02*
X263359343Y-195085771D01*
X264716486Y-196585771D02*
X264716486Y-195085771D01*
X264716486Y-196514343D02*
X264573629Y-196585771D01*
X264287915Y-196585771D01*
X264145057Y-196514343D01*
X264073629Y-196442914D01*
X264002200Y-196300057D01*
X264002200Y-195871486D01*
X264073629Y-195728629D01*
X264145057Y-195657200D01*
X264287915Y-195585771D01*
X264573629Y-195585771D01*
X264716486Y-195657200D01*
X265430772Y-196442914D02*
X265502200Y-196514343D01*
X265430772Y-196585771D01*
X265359343Y-196514343D01*
X265430772Y-196442914D01*
X265430772Y-196585771D01*
X265430772Y-195657200D02*
X265502200Y-195728629D01*
X265430772Y-195800057D01*
X265359343Y-195728629D01*
X265430772Y-195657200D01*
X265430772Y-195800057D01*
X268073629Y-196585771D02*
X267216486Y-196585771D01*
X267645058Y-196585771D02*
X267645058Y-195085771D01*
X267502201Y-195300057D01*
X267359343Y-195442914D01*
X267216486Y-195514343D01*
X269787914Y-195014343D02*
X268502200Y-196942914D01*
X271073629Y-196585771D02*
X270216486Y-196585771D01*
X270645058Y-196585771D02*
X270645058Y-195085771D01*
X270502201Y-195300057D01*
X270359343Y-195442914D01*
X270216486Y-195514343D01*
D10*
D11*
X177002200Y-187507200D02*
X285002200Y-187507200D01*
D10*
D13*
X178454581Y-188211962D02*
X179597438Y-188211962D01*
X178776010Y-190211962D02*
X179026010Y-188211962D01*
X180014105Y-190211962D02*
X180180771Y-188878629D01*
X180264105Y-188211962D02*
X180156962Y-188307200D01*
X180240295Y-188402438D01*
X180347439Y-188307200D01*
X180264105Y-188211962D01*
X180240295Y-188402438D01*
X180847438Y-188878629D02*
X181609343Y-188878629D01*
X181216486Y-188211962D02*
X181002200Y-189926248D01*
X181073630Y-190116724D01*
X181252201Y-190211962D01*
X181442677Y-190211962D01*
X182395058Y-190211962D02*
X182216487Y-190116724D01*
X182145057Y-189926248D01*
X182359343Y-188211962D01*
X183930772Y-190116724D02*
X183728391Y-190211962D01*
X183347439Y-190211962D01*
X183168867Y-190116724D01*
X183097438Y-189926248D01*
X183192676Y-189164343D01*
X183311724Y-188973867D01*
X183514105Y-188878629D01*
X183895057Y-188878629D01*
X184073629Y-188973867D01*
X184145057Y-189164343D01*
X184121248Y-189354819D01*
X183145057Y-189545295D01*
X184895057Y-190021486D02*
X184978392Y-190116724D01*
X184871248Y-190211962D01*
X184787915Y-190116724D01*
X184895057Y-190021486D01*
X184871248Y-190211962D01*
X185026010Y-188973867D02*
X185109344Y-189069105D01*
X185002200Y-189164343D01*
X184918867Y-189069105D01*
X185026010Y-188973867D01*
X185002200Y-189164343D01*
D10*
D11*
X178859343Y-185600057D02*
X178359343Y-185600057D01*
X178359343Y-186385771D02*
X178359343Y-184885771D01*
X179073629Y-184885771D01*
X179645057Y-186385771D02*
X179645057Y-185385771D01*
X179645057Y-184885771D02*
X179573628Y-184957200D01*
X179645057Y-185028629D01*
X179716485Y-184957200D01*
X179645057Y-184885771D01*
X179645057Y-185028629D01*
X180573629Y-186385771D02*
X180430771Y-186314343D01*
X180359343Y-186171486D01*
X180359343Y-184885771D01*
X181716485Y-186314343D02*
X181573628Y-186385771D01*
X181287914Y-186385771D01*
X181145057Y-186314343D01*
X181073628Y-186171486D01*
X181073628Y-185600057D01*
X181145057Y-185457200D01*
X181287914Y-185385771D01*
X181573628Y-185385771D01*
X181716485Y-185457200D01*
X181787914Y-185600057D01*
X181787914Y-185742914D01*
X181073628Y-185885771D01*
X182430771Y-186242914D02*
X182502199Y-186314343D01*
X182430771Y-186385771D01*
X182359342Y-186314343D01*
X182430771Y-186242914D01*
X182430771Y-186385771D01*
X182430771Y-185457200D02*
X182502199Y-185528629D01*
X182430771Y-185600057D01*
X182359342Y-185528629D01*
X182430771Y-185457200D01*
X182430771Y-185600057D01*
X184287914Y-186385771D02*
X184287914Y-184885771D01*
X184287914Y-185600057D02*
X185145057Y-185600057D01*
X185145057Y-186385771D02*
X185145057Y-184885771D01*
X185502200Y-186528629D02*
X186645057Y-186528629D01*
X187502200Y-185600057D02*
X187716486Y-185671486D01*
X187787914Y-185742914D01*
X187859343Y-185885771D01*
X187859343Y-186100057D01*
X187787914Y-186242914D01*
X187716486Y-186314343D01*
X187573628Y-186385771D01*
X187002200Y-186385771D01*
X187002200Y-184885771D01*
X187502200Y-184885771D01*
X187645057Y-184957200D01*
X187716486Y-185028629D01*
X187787914Y-185171486D01*
X187787914Y-185314343D01*
X187716486Y-185457200D01*
X187645057Y-185528629D01*
X187502200Y-185600057D01*
X187002200Y-185600057D01*
X188502200Y-186385771D02*
X188502200Y-185385771D01*
X188502200Y-185671486D02*
X188573628Y-185528629D01*
X188645057Y-185457200D01*
X188787914Y-185385771D01*
X188930771Y-185385771D01*
X189430771Y-186385771D02*
X189430771Y-185385771D01*
X189430771Y-184885771D02*
X189359342Y-184957200D01*
X189430771Y-185028629D01*
X189502199Y-184957200D01*
X189430771Y-184885771D01*
X189430771Y-185028629D01*
X190787914Y-186385771D02*
X190787914Y-184885771D01*
X190787914Y-186314343D02*
X190645057Y-186385771D01*
X190359343Y-186385771D01*
X190216485Y-186314343D01*
X190145057Y-186242914D01*
X190073628Y-186100057D01*
X190073628Y-185671486D01*
X190145057Y-185528629D01*
X190216485Y-185457200D01*
X190359343Y-185385771D01*
X190645057Y-185385771D01*
X190787914Y-185457200D01*
X192145057Y-185385771D02*
X192145057Y-186600057D01*
X192073628Y-186742914D01*
X192002200Y-186814343D01*
X191859343Y-186885771D01*
X191645057Y-186885771D01*
X191502200Y-186814343D01*
X192145057Y-186314343D02*
X192002200Y-186385771D01*
X191716486Y-186385771D01*
X191573628Y-186314343D01*
X191502200Y-186242914D01*
X191430771Y-186100057D01*
X191430771Y-185671486D01*
X191502200Y-185528629D01*
X191573628Y-185457200D01*
X191716486Y-185385771D01*
X192002200Y-185385771D01*
X192145057Y-185457200D01*
X193430771Y-186314343D02*
X193287914Y-186385771D01*
X193002200Y-186385771D01*
X192859343Y-186314343D01*
X192787914Y-186171486D01*
X192787914Y-185600057D01*
X192859343Y-185457200D01*
X193002200Y-185385771D01*
X193287914Y-185385771D01*
X193430771Y-185457200D01*
X193502200Y-185600057D01*
X193502200Y-185742914D01*
X192787914Y-185885771D01*
X194145057Y-186242914D02*
X194216485Y-186314343D01*
X194145057Y-186385771D01*
X194073628Y-186314343D01*
X194145057Y-186242914D01*
X194145057Y-186385771D01*
X194859343Y-186385771D02*
X194859343Y-184885771D01*
X195002200Y-185814343D02*
X195430771Y-186385771D01*
X195430771Y-185385771D02*
X194859343Y-185957200D01*
X196073629Y-186385771D02*
X196073629Y-185385771D01*
X196073629Y-184885771D02*
X196002200Y-184957200D01*
X196073629Y-185028629D01*
X196145057Y-184957200D01*
X196073629Y-184885771D01*
X196073629Y-185028629D01*
X197430772Y-186314343D02*
X197287915Y-186385771D01*
X197002201Y-186385771D01*
X196859343Y-186314343D01*
X196787915Y-186242914D01*
X196716486Y-186100057D01*
X196716486Y-185671486D01*
X196787915Y-185528629D01*
X196859343Y-185457200D01*
X197002201Y-185385771D01*
X197287915Y-185385771D01*
X197430772Y-185457200D01*
X198716486Y-186385771D02*
X198716486Y-185600057D01*
X198645057Y-185457200D01*
X198502200Y-185385771D01*
X198216486Y-185385771D01*
X198073629Y-185457200D01*
X198716486Y-186314343D02*
X198573629Y-186385771D01*
X198216486Y-186385771D01*
X198073629Y-186314343D01*
X198002200Y-186171486D01*
X198002200Y-186028629D01*
X198073629Y-185885771D01*
X198216486Y-185814343D01*
X198573629Y-185814343D01*
X198716486Y-185742914D01*
X200073629Y-186385771D02*
X200073629Y-184885771D01*
X200073629Y-186314343D02*
X199930772Y-186385771D01*
X199645058Y-186385771D01*
X199502200Y-186314343D01*
X199430772Y-186242914D01*
X199359343Y-186100057D01*
X199359343Y-185671486D01*
X199430772Y-185528629D01*
X199502200Y-185457200D01*
X199645058Y-185385771D01*
X199930772Y-185385771D01*
X200073629Y-185457200D01*
X200430772Y-186528629D02*
X201573629Y-186528629D01*
X201930772Y-185385771D02*
X201930772Y-186885771D01*
X201930772Y-185457200D02*
X202073629Y-185385771D01*
X202359343Y-185385771D01*
X202502200Y-185457200D01*
X202573629Y-185528629D01*
X202645058Y-185671486D01*
X202645058Y-186100057D01*
X202573629Y-186242914D01*
X202502200Y-186314343D01*
X202359343Y-186385771D01*
X202073629Y-186385771D01*
X201930772Y-186314343D01*
X203930772Y-186314343D02*
X203787915Y-186385771D01*
X203502201Y-186385771D01*
X203359343Y-186314343D01*
X203287915Y-186242914D01*
X203216486Y-186100057D01*
X203216486Y-185671486D01*
X203287915Y-185528629D01*
X203359343Y-185457200D01*
X203502201Y-185385771D01*
X203787915Y-185385771D01*
X203930772Y-185457200D01*
X204573629Y-186385771D02*
X204573629Y-184885771D01*
X204573629Y-185457200D02*
X204716486Y-185385771D01*
X205002200Y-185385771D01*
X205145057Y-185457200D01*
X205216486Y-185528629D01*
X205287915Y-185671486D01*
X205287915Y-186100057D01*
X205216486Y-186242914D01*
X205145057Y-186314343D01*
X205002200Y-186385771D01*
X204716486Y-186385771D01*
X204573629Y-186314343D01*
D10*
D11*
X177002200Y-181507200D02*
X285002200Y-181507200D01*
D10*
D11*
X178287914Y-183614343D02*
X178502200Y-183685771D01*
X178859343Y-183685771D01*
X179002200Y-183614343D01*
X179073629Y-183542914D01*
X179145057Y-183400057D01*
X179145057Y-183257200D01*
X179073629Y-183114343D01*
X179002200Y-183042914D01*
X178859343Y-182971486D01*
X178573629Y-182900057D01*
X178430771Y-182828629D01*
X178359343Y-182757200D01*
X178287914Y-182614343D01*
X178287914Y-182471486D01*
X178359343Y-182328629D01*
X178430771Y-182257200D01*
X178573629Y-182185771D01*
X178930771Y-182185771D01*
X179145057Y-182257200D01*
X179787914Y-183685771D02*
X179787914Y-182185771D01*
X180430771Y-183685771D02*
X180430771Y-182900057D01*
X180359342Y-182757200D01*
X180216485Y-182685771D01*
X180002200Y-182685771D01*
X179859342Y-182757200D01*
X179787914Y-182828629D01*
X181716485Y-183614343D02*
X181573628Y-183685771D01*
X181287914Y-183685771D01*
X181145057Y-183614343D01*
X181073628Y-183471486D01*
X181073628Y-182900057D01*
X181145057Y-182757200D01*
X181287914Y-182685771D01*
X181573628Y-182685771D01*
X181716485Y-182757200D01*
X181787914Y-182900057D01*
X181787914Y-183042914D01*
X181073628Y-183185771D01*
X183002199Y-183614343D02*
X182859342Y-183685771D01*
X182573628Y-183685771D01*
X182430771Y-183614343D01*
X182359342Y-183471486D01*
X182359342Y-182900057D01*
X182430771Y-182757200D01*
X182573628Y-182685771D01*
X182859342Y-182685771D01*
X183002199Y-182757200D01*
X183073628Y-182900057D01*
X183073628Y-183042914D01*
X182359342Y-183185771D01*
X183502199Y-182685771D02*
X184073628Y-182685771D01*
X183716485Y-182185771D02*
X183716485Y-183471486D01*
X183787913Y-183614343D01*
X183930771Y-183685771D01*
X184073628Y-183685771D01*
X184573628Y-183542914D02*
X184645056Y-183614343D01*
X184573628Y-183685771D01*
X184502199Y-183614343D01*
X184573628Y-183542914D01*
X184573628Y-183685771D01*
X184573628Y-182757200D02*
X184645056Y-182828629D01*
X184573628Y-182900057D01*
X184502199Y-182828629D01*
X184573628Y-182757200D01*
X184573628Y-182900057D01*
D10*
D11*
X197002200Y-191507200D02*
X197002200Y-194507200D01*
D10*
D11*
X261002200Y-191507200D02*
X261002200Y-198007200D01*
D14*
X159851405Y-109020000D02*
G75*
G03X159851405Y-109020000I-641405J0D01*
G01*
X160368486Y-109050000D02*
G75*
G03X160368486Y-109050000I-1188486J0D01*
G01*
X161049465Y-109120000D02*
G75*
G03X161049465Y-109120000I-1869465J0D01*
G01*
X161670292Y-109160000D02*
G75*
G03X161670292Y-109160000I-2570292J0D01*
G01*
X162244949Y-109150000D02*
G75*
G03X162244949Y-109150000I-3164949J0D01*
G01*
X162942557Y-109230000D02*
G75*
G03X162942557Y-109230000I-3912557J0D01*
G01*
X163854165Y-109240000D02*
G75*
G03X163854165Y-109240000I-4924165J0D01*
G01*
X164742963Y-109300000D02*
G75*
G03X164742963Y-109300000I-5872963J0D01*
G01*
X165699877Y-109300000D02*
G75*
G03X165699877Y-109300000I-6889877J0D01*
G01*
D12*
X168211430Y-105938571D02*
X168211430Y-106938571D01*
X167568573Y-105938571D02*
X167568573Y-106724286D01*
X167640001Y-106867143D01*
X167782859Y-106938571D01*
X167997144Y-106938571D01*
X168140001Y-106867143D01*
X168211430Y-106795714D01*
X169211430Y-105438571D02*
X169354287Y-105438571D01*
X169497144Y-105510000D01*
X169568573Y-105581429D01*
X169640002Y-105724286D01*
X169711430Y-106010000D01*
X169711430Y-106367143D01*
X169640002Y-106652857D01*
X169568573Y-106795714D01*
X169497144Y-106867143D01*
X169354287Y-106938571D01*
X169211430Y-106938571D01*
X169068573Y-106867143D01*
X168997144Y-106795714D01*
X168925716Y-106652857D01*
X168854287Y-106367143D01*
X168854287Y-106010000D01*
X168925716Y-105724286D01*
X168997144Y-105581429D01*
X169068573Y-105510000D01*
X169211430Y-105438571D01*
X170997144Y-105438571D02*
X170711430Y-105438571D01*
X170568573Y-105510000D01*
X170497144Y-105581429D01*
X170354287Y-105795714D01*
X170282858Y-106081429D01*
X170282858Y-106652857D01*
X170354287Y-106795714D01*
X170425715Y-106867143D01*
X170568573Y-106938571D01*
X170854287Y-106938571D01*
X170997144Y-106867143D01*
X171068573Y-106795714D01*
X171140001Y-106652857D01*
X171140001Y-106295714D01*
X171068573Y-106152857D01*
X170997144Y-106081429D01*
X170854287Y-106010000D01*
X170568573Y-106010000D01*
X170425715Y-106081429D01*
X170354287Y-106152857D01*
X170282858Y-106295714D01*
X171711429Y-105581429D02*
X171782858Y-105510000D01*
X171925715Y-105438571D01*
X172282858Y-105438571D01*
X172425715Y-105510000D01*
X172497144Y-105581429D01*
X172568572Y-105724286D01*
X172568572Y-105867143D01*
X172497144Y-106081429D01*
X171640001Y-106938571D01*
X172568572Y-106938571D01*
X173282857Y-106938571D02*
X173568572Y-106938571D01*
X173711429Y-106867143D01*
X173782857Y-106795714D01*
X173925715Y-106581429D01*
X173997143Y-106295714D01*
X173997143Y-105724286D01*
X173925715Y-105581429D01*
X173854286Y-105510000D01*
X173711429Y-105438571D01*
X173425715Y-105438571D01*
X173282857Y-105510000D01*
X173211429Y-105581429D01*
X173140000Y-105724286D01*
X173140000Y-106081429D01*
X173211429Y-106224286D01*
X173282857Y-106295714D01*
X173425715Y-106367143D01*
X173711429Y-106367143D01*
X173854286Y-106295714D01*
X173925715Y-106224286D01*
X173997143Y-106081429D01*
X174497143Y-105438571D02*
X175425714Y-105438571D01*
X174925714Y-106010000D01*
X175140000Y-106010000D01*
X175282857Y-106081429D01*
X175354286Y-106152857D01*
X175425714Y-106295714D01*
X175425714Y-106652857D01*
X175354286Y-106795714D01*
X175282857Y-106867143D01*
X175140000Y-106938571D01*
X174711428Y-106938571D01*
X174568571Y-106867143D01*
X174497143Y-106795714D01*
X176711428Y-105438571D02*
X176425714Y-105438571D01*
X176282857Y-105510000D01*
X176211428Y-105581429D01*
X176068571Y-105795714D01*
X175997142Y-106081429D01*
X175997142Y-106652857D01*
X176068571Y-106795714D01*
X176139999Y-106867143D01*
X176282857Y-106938571D01*
X176568571Y-106938571D01*
X176711428Y-106867143D01*
X176782857Y-106795714D01*
X176854285Y-106652857D01*
X176854285Y-106295714D01*
X176782857Y-106152857D01*
X176711428Y-106081429D01*
X176568571Y-106010000D01*
X176282857Y-106010000D01*
X176139999Y-106081429D01*
X176068571Y-106152857D01*
X175997142Y-106295714D01*
X178211428Y-105438571D02*
X177497142Y-105438571D01*
X177425713Y-106152857D01*
X177497142Y-106081429D01*
X177639999Y-106010000D01*
X177997142Y-106010000D01*
X178139999Y-106081429D01*
X178211428Y-106152857D01*
X178282856Y-106295714D01*
X178282856Y-106652857D01*
X178211428Y-106795714D01*
X178139999Y-106867143D01*
X177997142Y-106938571D01*
X177639999Y-106938571D01*
X177497142Y-106867143D01*
X177425713Y-106795714D01*
X168318572Y-109338571D02*
X168318572Y-107838571D01*
X168318572Y-108552857D02*
X169175715Y-108552857D01*
X169175715Y-109338571D02*
X169175715Y-107838571D01*
X171532858Y-108552857D02*
X171747144Y-108624286D01*
X171818572Y-108695714D01*
X171890001Y-108838571D01*
X171890001Y-109052857D01*
X171818572Y-109195714D01*
X171747144Y-109267143D01*
X171604286Y-109338571D01*
X171032858Y-109338571D01*
X171032858Y-107838571D01*
X171532858Y-107838571D01*
X171675715Y-107910000D01*
X171747144Y-107981429D01*
X171818572Y-108124286D01*
X171818572Y-108267143D01*
X171747144Y-108410000D01*
X171675715Y-108481429D01*
X171532858Y-108552857D01*
X171032858Y-108552857D01*
X172532858Y-109338571D02*
X172532858Y-108338571D01*
X172532858Y-108624286D02*
X172604286Y-108481429D01*
X172675715Y-108410000D01*
X172818572Y-108338571D01*
X172961429Y-108338571D01*
X173461429Y-109338571D02*
X173461429Y-108338571D01*
X173461429Y-107838571D02*
X173390000Y-107910000D01*
X173461429Y-107981429D01*
X173532857Y-107910000D01*
X173461429Y-107838571D01*
X173461429Y-107981429D01*
X174818572Y-109338571D02*
X174818572Y-107838571D01*
X174818572Y-109267143D02*
X174675715Y-109338571D01*
X174390001Y-109338571D01*
X174247143Y-109267143D01*
X174175715Y-109195714D01*
X174104286Y-109052857D01*
X174104286Y-108624286D01*
X174175715Y-108481429D01*
X174247143Y-108410000D01*
X174390001Y-108338571D01*
X174675715Y-108338571D01*
X174818572Y-108410000D01*
X176175715Y-108338571D02*
X176175715Y-109552857D01*
X176104286Y-109695714D01*
X176032858Y-109767143D01*
X175890001Y-109838571D01*
X175675715Y-109838571D01*
X175532858Y-109767143D01*
X176175715Y-109267143D02*
X176032858Y-109338571D01*
X175747144Y-109338571D01*
X175604286Y-109267143D01*
X175532858Y-109195714D01*
X175461429Y-109052857D01*
X175461429Y-108624286D01*
X175532858Y-108481429D01*
X175604286Y-108410000D01*
X175747144Y-108338571D01*
X176032858Y-108338571D01*
X176175715Y-108410000D01*
X177461429Y-109267143D02*
X177318572Y-109338571D01*
X177032858Y-109338571D01*
X176890001Y-109267143D01*
X176818572Y-109124286D01*
X176818572Y-108552857D01*
X176890001Y-108410000D01*
X177032858Y-108338571D01*
X177318572Y-108338571D01*
X177461429Y-108410000D01*
X177532858Y-108552857D01*
X177532858Y-108695714D01*
X176818572Y-108838571D01*
D11*
X185670000Y-117570000D02*
X185670000Y-72200000D01*
X132440000Y-117570000D02*
X185670000Y-117570000D01*
X132440000Y-55320000D02*
X132440000Y-117570000D01*
X133830000Y-55320000D02*
X132440000Y-55320000D01*
X185620000Y-55320000D02*
X133830000Y-55320000D01*
X185620000Y-55930000D02*
X185620000Y-55320000D01*
X185620000Y-57070000D02*
X185620000Y-55930000D01*
X185620000Y-58050000D02*
X185620000Y-57070000D01*
X185620000Y-72900000D02*
X185620000Y-58050000D01*
D10*
X137643571Y-116507143D02*
X137679286Y-116400000D01*
X137679286Y-116221429D01*
X137643571Y-116150000D01*
X137607857Y-116114286D01*
X137536429Y-116078571D01*
X137465000Y-116078571D01*
X137393571Y-116114286D01*
X137357857Y-116150000D01*
X137322143Y-116221429D01*
X137286429Y-116364286D01*
X137250714Y-116435714D01*
X137215000Y-116471429D01*
X137143571Y-116507143D01*
X137072143Y-116507143D01*
X137000714Y-116471429D01*
X136965000Y-116435714D01*
X136929286Y-116364286D01*
X136929286Y-116185714D01*
X136965000Y-116078571D01*
X137607857Y-115328571D02*
X137643571Y-115364285D01*
X137679286Y-115471428D01*
X137679286Y-115542857D01*
X137643571Y-115650000D01*
X137572143Y-115721428D01*
X137500714Y-115757143D01*
X137357857Y-115792857D01*
X137250714Y-115792857D01*
X137107857Y-115757143D01*
X137036429Y-115721428D01*
X136965000Y-115650000D01*
X136929286Y-115542857D01*
X136929286Y-115471428D01*
X136965000Y-115364285D01*
X137000714Y-115328571D01*
X137679286Y-114650000D02*
X137679286Y-115007143D01*
X136929286Y-115007143D01*
X137679286Y-114400000D02*
X136929286Y-114400000D01*
X137679286Y-113971428D02*
X137250714Y-114292857D01*
X136929286Y-113971428D02*
X137357857Y-114400000D01*
X139943571Y-116507143D02*
X139979286Y-116400000D01*
X139979286Y-116221429D01*
X139943571Y-116150000D01*
X139907857Y-116114286D01*
X139836429Y-116078571D01*
X139765000Y-116078571D01*
X139693571Y-116114286D01*
X139657857Y-116150000D01*
X139622143Y-116221429D01*
X139586429Y-116364286D01*
X139550714Y-116435714D01*
X139515000Y-116471429D01*
X139443571Y-116507143D01*
X139372143Y-116507143D01*
X139300714Y-116471429D01*
X139265000Y-116435714D01*
X139229286Y-116364286D01*
X139229286Y-116185714D01*
X139265000Y-116078571D01*
X139979286Y-115757143D02*
X139229286Y-115757143D01*
X139229286Y-115578571D01*
X139265000Y-115471428D01*
X139336429Y-115400000D01*
X139407857Y-115364285D01*
X139550714Y-115328571D01*
X139657857Y-115328571D01*
X139800714Y-115364285D01*
X139872143Y-115400000D01*
X139943571Y-115471428D01*
X139979286Y-115578571D01*
X139979286Y-115757143D01*
X139765000Y-115042857D02*
X139765000Y-114685714D01*
X139979286Y-115114285D02*
X139229286Y-114864285D01*
X139979286Y-114614285D01*
X139229286Y-114471428D02*
X139229286Y-114042857D01*
X139979286Y-114257143D02*
X139229286Y-114257143D01*
X142279286Y-116471429D02*
X141529286Y-116471429D01*
X142279286Y-116114286D02*
X141529286Y-116114286D01*
X142279286Y-115685714D01*
X141529286Y-115685714D01*
X141529286Y-115435714D02*
X141529286Y-115007143D01*
X142279286Y-115221429D02*
X141529286Y-115221429D01*
X144579286Y-116471429D02*
X143829286Y-116471429D01*
X143829286Y-116292857D01*
X143865000Y-116185714D01*
X143936429Y-116114286D01*
X144007857Y-116078571D01*
X144150714Y-116042857D01*
X144257857Y-116042857D01*
X144400714Y-116078571D01*
X144472143Y-116114286D01*
X144543571Y-116185714D01*
X144579286Y-116292857D01*
X144579286Y-116471429D01*
X144365000Y-115757143D02*
X144365000Y-115400000D01*
X144579286Y-115828571D02*
X143829286Y-115578571D01*
X144579286Y-115328571D01*
X143829286Y-115185714D02*
X143829286Y-114757143D01*
X144579286Y-114971429D02*
X143829286Y-114971429D01*
X144579286Y-114114285D02*
X144579286Y-114542857D01*
X144579286Y-114328571D02*
X143829286Y-114328571D01*
X143936429Y-114400000D01*
X144007857Y-114471428D01*
X144043571Y-114542857D01*
X146879286Y-116471429D02*
X146129286Y-116471429D01*
X146129286Y-116292857D01*
X146165000Y-116185714D01*
X146236429Y-116114286D01*
X146307857Y-116078571D01*
X146450714Y-116042857D01*
X146557857Y-116042857D01*
X146700714Y-116078571D01*
X146772143Y-116114286D01*
X146843571Y-116185714D01*
X146879286Y-116292857D01*
X146879286Y-116471429D01*
X146665000Y-115757143D02*
X146665000Y-115400000D01*
X146879286Y-115828571D02*
X146129286Y-115578571D01*
X146879286Y-115328571D01*
X146129286Y-115185714D02*
X146129286Y-114757143D01*
X146879286Y-114971429D02*
X146129286Y-114971429D01*
X146200714Y-114542857D02*
X146165000Y-114507143D01*
X146129286Y-114435714D01*
X146129286Y-114257143D01*
X146165000Y-114185714D01*
X146200714Y-114150000D01*
X146272143Y-114114285D01*
X146343571Y-114114285D01*
X146450714Y-114150000D01*
X146879286Y-114578571D01*
X146879286Y-114114285D01*
X182481429Y-72439286D02*
X182624286Y-72439286D01*
X182695714Y-72475000D01*
X182767143Y-72546429D01*
X182802857Y-72689286D01*
X182802857Y-72939286D01*
X182767143Y-73082143D01*
X182695714Y-73153571D01*
X182624286Y-73189286D01*
X182481429Y-73189286D01*
X182410000Y-73153571D01*
X182338571Y-73082143D01*
X182302857Y-72939286D01*
X182302857Y-72689286D01*
X182338571Y-72546429D01*
X182410000Y-72475000D01*
X182481429Y-72439286D01*
X183124285Y-72439286D02*
X183124285Y-73046429D01*
X183160000Y-73117857D01*
X183195714Y-73153571D01*
X183267143Y-73189286D01*
X183410000Y-73189286D01*
X183481428Y-73153571D01*
X183517143Y-73117857D01*
X183552857Y-73046429D01*
X183552857Y-72439286D01*
X183802857Y-72439286D02*
X184231428Y-72439286D01*
X184017142Y-73189286D02*
X184017142Y-72439286D01*
X184874286Y-73189286D02*
X184445714Y-73189286D01*
X184660000Y-73189286D02*
X184660000Y-72439286D01*
X184588571Y-72546429D01*
X184517143Y-72617857D01*
X184445714Y-72653571D01*
X182481429Y-74739286D02*
X182624286Y-74739286D01*
X182695714Y-74775000D01*
X182767143Y-74846429D01*
X182802857Y-74989286D01*
X182802857Y-75239286D01*
X182767143Y-75382143D01*
X182695714Y-75453571D01*
X182624286Y-75489286D01*
X182481429Y-75489286D01*
X182410000Y-75453571D01*
X182338571Y-75382143D01*
X182302857Y-75239286D01*
X182302857Y-74989286D01*
X182338571Y-74846429D01*
X182410000Y-74775000D01*
X182481429Y-74739286D01*
X183124285Y-74739286D02*
X183124285Y-75346429D01*
X183160000Y-75417857D01*
X183195714Y-75453571D01*
X183267143Y-75489286D01*
X183410000Y-75489286D01*
X183481428Y-75453571D01*
X183517143Y-75417857D01*
X183552857Y-75346429D01*
X183552857Y-74739286D01*
X183802857Y-74739286D02*
X184231428Y-74739286D01*
X184017142Y-75489286D02*
X184017142Y-74739286D01*
X184445714Y-74810714D02*
X184481428Y-74775000D01*
X184552857Y-74739286D01*
X184731428Y-74739286D01*
X184802857Y-74775000D01*
X184838571Y-74810714D01*
X184874286Y-74882143D01*
X184874286Y-74953571D01*
X184838571Y-75060714D01*
X184410000Y-75489286D01*
X184874286Y-75489286D01*
X182731429Y-77075000D02*
X182660000Y-77039286D01*
X182552857Y-77039286D01*
X182445714Y-77075000D01*
X182374286Y-77146429D01*
X182338571Y-77217857D01*
X182302857Y-77360714D01*
X182302857Y-77467857D01*
X182338571Y-77610714D01*
X182374286Y-77682143D01*
X182445714Y-77753571D01*
X182552857Y-77789286D01*
X182624286Y-77789286D01*
X182731429Y-77753571D01*
X182767143Y-77717857D01*
X182767143Y-77467857D01*
X182624286Y-77467857D01*
X183088571Y-77789286D02*
X183088571Y-77039286D01*
X183517143Y-77789286D01*
X183517143Y-77039286D01*
X183874285Y-77789286D02*
X183874285Y-77039286D01*
X184052857Y-77039286D01*
X184160000Y-77075000D01*
X184231428Y-77146429D01*
X184267143Y-77217857D01*
X184302857Y-77360714D01*
X184302857Y-77467857D01*
X184267143Y-77610714D01*
X184231428Y-77682143D01*
X184160000Y-77753571D01*
X184052857Y-77789286D01*
X183874285Y-77789286D01*
X182231429Y-79339286D02*
X182481429Y-80089286D01*
X182731429Y-79339286D01*
X183552857Y-80089286D02*
X183552857Y-79339286D01*
X183910000Y-80089286D02*
X183910000Y-79339286D01*
X184338572Y-80089286D01*
X184338572Y-79339286D01*
X182338571Y-82389286D02*
X182338571Y-81639286D01*
X182517143Y-81639286D01*
X182624286Y-81675000D01*
X182695714Y-81746429D01*
X182731429Y-81817857D01*
X182767143Y-81960714D01*
X182767143Y-82067857D01*
X182731429Y-82210714D01*
X182695714Y-82282143D01*
X182624286Y-82353571D01*
X182517143Y-82389286D01*
X182338571Y-82389286D01*
X183052857Y-82175000D02*
X183410000Y-82175000D01*
X182981429Y-82389286D02*
X183231429Y-81639286D01*
X183481429Y-82389286D01*
X183624286Y-81639286D02*
X184052857Y-81639286D01*
X183838571Y-82389286D02*
X183838571Y-81639286D01*
X184695715Y-82389286D02*
X184267143Y-82389286D01*
X184481429Y-82389286D02*
X184481429Y-81639286D01*
X184410000Y-81746429D01*
X184338572Y-81817857D01*
X184267143Y-81853571D01*
X182338571Y-84689286D02*
X182338571Y-83939286D01*
X182517143Y-83939286D01*
X182624286Y-83975000D01*
X182695714Y-84046429D01*
X182731429Y-84117857D01*
X182767143Y-84260714D01*
X182767143Y-84367857D01*
X182731429Y-84510714D01*
X182695714Y-84582143D01*
X182624286Y-84653571D01*
X182517143Y-84689286D01*
X182338571Y-84689286D01*
X183052857Y-84475000D02*
X183410000Y-84475000D01*
X182981429Y-84689286D02*
X183231429Y-83939286D01*
X183481429Y-84689286D01*
X183624286Y-83939286D02*
X184052857Y-83939286D01*
X183838571Y-84689286D02*
X183838571Y-83939286D01*
X184267143Y-84010714D02*
X184302857Y-83975000D01*
X184374286Y-83939286D01*
X184552857Y-83939286D01*
X184624286Y-83975000D01*
X184660000Y-84010714D01*
X184695715Y-84082143D01*
X184695715Y-84153571D01*
X184660000Y-84260714D01*
X184231429Y-84689286D01*
X184695715Y-84689286D01*
X178881429Y-60575000D02*
X178810000Y-60539286D01*
X178702857Y-60539286D01*
X178595714Y-60575000D01*
X178524286Y-60646429D01*
X178488571Y-60717857D01*
X178452857Y-60860714D01*
X178452857Y-60967857D01*
X178488571Y-61110714D01*
X178524286Y-61182143D01*
X178595714Y-61253571D01*
X178702857Y-61289286D01*
X178774286Y-61289286D01*
X178881429Y-61253571D01*
X178917143Y-61217857D01*
X178917143Y-60967857D01*
X178774286Y-60967857D01*
X179238571Y-61289286D02*
X179238571Y-60539286D01*
X179667143Y-61289286D01*
X179667143Y-60539286D01*
X180024285Y-61289286D02*
X180024285Y-60539286D01*
X180202857Y-60539286D01*
X180310000Y-60575000D01*
X180381428Y-60646429D01*
X180417143Y-60717857D01*
X180452857Y-60860714D01*
X180452857Y-60967857D01*
X180417143Y-61110714D01*
X180381428Y-61182143D01*
X180310000Y-61253571D01*
X180202857Y-61289286D01*
X180024285Y-61289286D01*
X178917143Y-63517857D02*
X178881429Y-63553571D01*
X178774286Y-63589286D01*
X178702857Y-63589286D01*
X178595714Y-63553571D01*
X178524286Y-63482143D01*
X178488571Y-63410714D01*
X178452857Y-63267857D01*
X178452857Y-63160714D01*
X178488571Y-63017857D01*
X178524286Y-62946429D01*
X178595714Y-62875000D01*
X178702857Y-62839286D01*
X178774286Y-62839286D01*
X178881429Y-62875000D01*
X178917143Y-62910714D01*
X179202857Y-63553571D02*
X179310000Y-63589286D01*
X179488571Y-63589286D01*
X179560000Y-63553571D01*
X179595714Y-63517857D01*
X179631429Y-63446429D01*
X179631429Y-63375000D01*
X179595714Y-63303571D01*
X179560000Y-63267857D01*
X179488571Y-63232143D01*
X179345714Y-63196429D01*
X179274286Y-63160714D01*
X179238571Y-63125000D01*
X179202857Y-63053571D01*
X179202857Y-62982143D01*
X179238571Y-62910714D01*
X179274286Y-62875000D01*
X179345714Y-62839286D01*
X179524286Y-62839286D01*
X179631429Y-62875000D01*
X178881429Y-65175000D02*
X178810000Y-65139286D01*
X178702857Y-65139286D01*
X178595714Y-65175000D01*
X178524286Y-65246429D01*
X178488571Y-65317857D01*
X178452857Y-65460714D01*
X178452857Y-65567857D01*
X178488571Y-65710714D01*
X178524286Y-65782143D01*
X178595714Y-65853571D01*
X178702857Y-65889286D01*
X178774286Y-65889286D01*
X178881429Y-65853571D01*
X178917143Y-65817857D01*
X178917143Y-65567857D01*
X178774286Y-65567857D01*
X179238571Y-65889286D02*
X179238571Y-65139286D01*
X179667143Y-65889286D01*
X179667143Y-65139286D01*
X180024285Y-65889286D02*
X180024285Y-65139286D01*
X180202857Y-65139286D01*
X180310000Y-65175000D01*
X180381428Y-65246429D01*
X180417143Y-65317857D01*
X180452857Y-65460714D01*
X180452857Y-65567857D01*
X180417143Y-65710714D01*
X180381428Y-65782143D01*
X180310000Y-65853571D01*
X180202857Y-65889286D01*
X180024285Y-65889286D01*
X164419286Y-58531429D02*
X163669286Y-58531429D01*
X164419286Y-58174286D02*
X163669286Y-58174286D01*
X164419286Y-57745714D01*
X163669286Y-57745714D01*
X164419286Y-56995714D02*
X164419286Y-57424286D01*
X164419286Y-57210000D02*
X163669286Y-57210000D01*
X163776429Y-57281429D01*
X163847857Y-57352857D01*
X163883571Y-57424286D01*
X166719286Y-58531429D02*
X165969286Y-58531429D01*
X166719286Y-58174286D02*
X165969286Y-58174286D01*
X166719286Y-57745714D01*
X165969286Y-57745714D01*
X166040714Y-57424286D02*
X166005000Y-57388572D01*
X165969286Y-57317143D01*
X165969286Y-57138572D01*
X166005000Y-57067143D01*
X166040714Y-57031429D01*
X166112143Y-56995714D01*
X166183571Y-56995714D01*
X166290714Y-57031429D01*
X166719286Y-57460000D01*
X166719286Y-56995714D01*
X168626429Y-58531429D02*
X168626429Y-58281429D01*
X169019286Y-58174286D02*
X169019286Y-58531429D01*
X168269286Y-58531429D01*
X168269286Y-58174286D01*
X169019286Y-57852858D02*
X168269286Y-57852858D01*
X169019286Y-57424286D01*
X168269286Y-57424286D01*
X154313571Y-58651429D02*
X154313571Y-58080000D01*
X154599286Y-58365714D02*
X154027857Y-58365714D01*
X153849286Y-57401429D02*
X153849286Y-57544286D01*
X153885000Y-57615715D01*
X153920714Y-57651429D01*
X154027857Y-57722858D01*
X154170714Y-57758572D01*
X154456429Y-57758572D01*
X154527857Y-57722858D01*
X154563571Y-57687143D01*
X154599286Y-57615715D01*
X154599286Y-57472858D01*
X154563571Y-57401429D01*
X154527857Y-57365715D01*
X154456429Y-57330000D01*
X154277857Y-57330000D01*
X154206429Y-57365715D01*
X154170714Y-57401429D01*
X154135000Y-57472858D01*
X154135000Y-57615715D01*
X154170714Y-57687143D01*
X154206429Y-57722858D01*
X154277857Y-57758572D01*
X153849286Y-57115714D02*
X154599286Y-56865714D01*
X153849286Y-56615714D01*
X156185000Y-58258571D02*
X156149286Y-58330000D01*
X156149286Y-58437143D01*
X156185000Y-58544286D01*
X156256429Y-58615714D01*
X156327857Y-58651429D01*
X156470714Y-58687143D01*
X156577857Y-58687143D01*
X156720714Y-58651429D01*
X156792143Y-58615714D01*
X156863571Y-58544286D01*
X156899286Y-58437143D01*
X156899286Y-58365714D01*
X156863571Y-58258571D01*
X156827857Y-58222857D01*
X156577857Y-58222857D01*
X156577857Y-58365714D01*
X156899286Y-57901429D02*
X156149286Y-57901429D01*
X156899286Y-57472857D01*
X156149286Y-57472857D01*
X156899286Y-57115715D02*
X156149286Y-57115715D01*
X156149286Y-56937143D01*
X156185000Y-56830000D01*
X156256429Y-56758572D01*
X156327857Y-56722857D01*
X156470714Y-56687143D01*
X156577857Y-56687143D01*
X156720714Y-56722857D01*
X156792143Y-56758572D01*
X156863571Y-56830000D01*
X156899286Y-56937143D01*
X156899286Y-57115715D01*
X140305000Y-58378571D02*
X140269286Y-58450000D01*
X140269286Y-58557143D01*
X140305000Y-58664286D01*
X140376429Y-58735714D01*
X140447857Y-58771429D01*
X140590714Y-58807143D01*
X140697857Y-58807143D01*
X140840714Y-58771429D01*
X140912143Y-58735714D01*
X140983571Y-58664286D01*
X141019286Y-58557143D01*
X141019286Y-58485714D01*
X140983571Y-58378571D01*
X140947857Y-58342857D01*
X140697857Y-58342857D01*
X140697857Y-58485714D01*
X141019286Y-58021429D02*
X140269286Y-58021429D01*
X141019286Y-57592857D01*
X140269286Y-57592857D01*
X141019286Y-57235715D02*
X140269286Y-57235715D01*
X140269286Y-57057143D01*
X140305000Y-56950000D01*
X140376429Y-56878572D01*
X140447857Y-56842857D01*
X140590714Y-56807143D01*
X140697857Y-56807143D01*
X140840714Y-56842857D01*
X140912143Y-56878572D01*
X140983571Y-56950000D01*
X141019286Y-57057143D01*
X141019286Y-57235715D01*
X142605000Y-58378571D02*
X142569286Y-58450000D01*
X142569286Y-58557143D01*
X142605000Y-58664286D01*
X142676429Y-58735714D01*
X142747857Y-58771429D01*
X142890714Y-58807143D01*
X142997857Y-58807143D01*
X143140714Y-58771429D01*
X143212143Y-58735714D01*
X143283571Y-58664286D01*
X143319286Y-58557143D01*
X143319286Y-58485714D01*
X143283571Y-58378571D01*
X143247857Y-58342857D01*
X142997857Y-58342857D01*
X142997857Y-58485714D01*
X143319286Y-58021429D02*
X142569286Y-58021429D01*
X143319286Y-57592857D01*
X142569286Y-57592857D01*
X143319286Y-57235715D02*
X142569286Y-57235715D01*
X142569286Y-57057143D01*
X142605000Y-56950000D01*
X142676429Y-56878572D01*
X142747857Y-56842857D01*
X142890714Y-56807143D01*
X142997857Y-56807143D01*
X143140714Y-56842857D01*
X143212143Y-56878572D01*
X143283571Y-56950000D01*
X143319286Y-57057143D01*
X143319286Y-57235715D01*
X145333571Y-58771429D02*
X145333571Y-58200000D01*
X145619286Y-58485714D02*
X145047857Y-58485714D01*
X144869286Y-57914286D02*
X144869286Y-57450000D01*
X145155000Y-57700000D01*
X145155000Y-57592858D01*
X145190714Y-57521429D01*
X145226429Y-57485715D01*
X145297857Y-57450000D01*
X145476429Y-57450000D01*
X145547857Y-57485715D01*
X145583571Y-57521429D01*
X145619286Y-57592858D01*
X145619286Y-57807143D01*
X145583571Y-57878572D01*
X145547857Y-57914286D01*
X145547857Y-57128572D02*
X145583571Y-57092857D01*
X145619286Y-57128572D01*
X145583571Y-57164286D01*
X145547857Y-57128572D01*
X145619286Y-57128572D01*
X144869286Y-56842857D02*
X144869286Y-56378571D01*
X145155000Y-56628571D01*
X145155000Y-56521429D01*
X145190714Y-56450000D01*
X145226429Y-56414286D01*
X145297857Y-56378571D01*
X145476429Y-56378571D01*
X145547857Y-56414286D01*
X145583571Y-56450000D01*
X145619286Y-56521429D01*
X145619286Y-56735714D01*
X145583571Y-56807143D01*
X145547857Y-56842857D01*
X144869286Y-56164285D02*
X145619286Y-55914285D01*
X144869286Y-55664285D01*
X147633571Y-58771429D02*
X147633571Y-58200000D01*
X147919286Y-58485714D02*
X147347857Y-58485714D01*
X147169286Y-57485715D02*
X147169286Y-57842858D01*
X147526429Y-57878572D01*
X147490714Y-57842858D01*
X147455000Y-57771429D01*
X147455000Y-57592858D01*
X147490714Y-57521429D01*
X147526429Y-57485715D01*
X147597857Y-57450000D01*
X147776429Y-57450000D01*
X147847857Y-57485715D01*
X147883571Y-57521429D01*
X147919286Y-57592858D01*
X147919286Y-57771429D01*
X147883571Y-57842858D01*
X147847857Y-57878572D01*
X147169286Y-57235714D02*
X147919286Y-56985714D01*
X147169286Y-56735714D01*
D11*
X137806000Y-58590000D02*
G75*
G03X137806000Y-58590000I-2286000J0D01*
G01*
X183626000Y-58530000D02*
G75*
G03X183626000Y-58530000I-2286000J0D01*
G01*
X147444000Y-106550000D02*
X147444000Y-98041000D01*
X147444000Y-77340000D02*
X147444000Y-85849000D01*
X135760000Y-77340000D02*
X147317000Y-77340000D01*
X147317000Y-77340000D02*
X147444000Y-77340000D01*
X138300000Y-85849000D02*
X138300000Y-98041000D01*
X145920000Y-85849000D02*
X147444000Y-85849000D01*
X138300000Y-85874400D02*
X145920000Y-85874400D01*
X138401600Y-98015600D02*
X147342400Y-98015600D01*
X135760000Y-77340000D02*
X135760000Y-106550000D01*
X135760000Y-106550000D02*
X147444000Y-106550000D01*
X139021000Y-74418000D02*
X139910000Y-74418000D01*
X139021000Y-70100000D02*
X139910000Y-70100000D01*
X143339000Y-70100000D02*
X142323000Y-70100000D01*
X142323000Y-74418000D02*
X143339000Y-74418000D01*
X139030000Y-70100000D02*
X139030000Y-74400000D01*
X143330000Y-74400000D02*
X143330000Y-70100000D01*
X141171000Y-76473000D02*
X141171000Y-75373000D01*
X140380000Y-67910000D02*
X141880000Y-67910000D01*
X141180000Y-67210000D02*
X141180000Y-68610000D01*
X133151000Y-74588000D02*
X134040000Y-74588000D01*
X133151000Y-70270000D02*
X134040000Y-70270000D01*
X137469000Y-70270000D02*
X136453000Y-70270000D01*
X136453000Y-74588000D02*
X137469000Y-74588000D01*
X133160000Y-70270000D02*
X133160000Y-74570000D01*
X137460000Y-74570000D02*
X137460000Y-70270000D01*
X135301000Y-76643000D02*
X135301000Y-75543000D01*
X134510000Y-68080000D02*
X136010000Y-68080000D01*
X135310000Y-67380000D02*
X135310000Y-68780000D01*
X144801000Y-74478000D02*
X145690000Y-74478000D01*
X144801000Y-70160000D02*
X145690000Y-70160000D01*
X149119000Y-70160000D02*
X148103000Y-70160000D01*
X148103000Y-74478000D02*
X149119000Y-74478000D01*
X144810000Y-70160000D02*
X144810000Y-74460000D01*
X149110000Y-74460000D02*
X149110000Y-70160000D01*
X146951000Y-76533000D02*
X146951000Y-75433000D01*
X146160000Y-67970000D02*
X147660000Y-67970000D01*
X146960000Y-67270000D02*
X146960000Y-68670000D01*
X169790000Y-77419000D02*
X169790000Y-78054000D01*
X169409000Y-77419000D02*
X170171000Y-77419000D01*
X169409000Y-76784000D02*
X170044000Y-76784000D01*
X170044000Y-76784000D02*
X169790000Y-77292000D01*
X169790000Y-77292000D02*
X169409000Y-76784000D01*
X169790000Y-76149000D02*
X169790000Y-76784000D01*
X167758000Y-76149000D02*
X169155000Y-76149000D01*
X169155000Y-76149000D02*
X169155000Y-78308000D01*
X169155000Y-78308000D02*
X167758000Y-78308000D01*
X167758000Y-78308000D02*
X167758000Y-76149000D01*
X170180000Y-72349000D02*
X170180000Y-72984000D01*
X169799000Y-72349000D02*
X170561000Y-72349000D01*
X169799000Y-71714000D02*
X170434000Y-71714000D01*
X170434000Y-71714000D02*
X170180000Y-72222000D01*
X170180000Y-72222000D02*
X169799000Y-71714000D01*
X170180000Y-71079000D02*
X170180000Y-71714000D01*
X168148000Y-71079000D02*
X169545000Y-71079000D01*
X169545000Y-71079000D02*
X169545000Y-73238000D01*
X169545000Y-73238000D02*
X168148000Y-73238000D01*
X168148000Y-73238000D02*
X168148000Y-71079000D01*
X173770000Y-72279000D02*
X173770000Y-72914000D01*
X173389000Y-72279000D02*
X174151000Y-72279000D01*
X173389000Y-71644000D02*
X174024000Y-71644000D01*
X174024000Y-71644000D02*
X173770000Y-72152000D01*
X173770000Y-72152000D02*
X173389000Y-71644000D01*
X173770000Y-71009000D02*
X173770000Y-71644000D01*
X171738000Y-71009000D02*
X173135000Y-71009000D01*
X173135000Y-71009000D02*
X173135000Y-73168000D01*
X173135000Y-73168000D02*
X171738000Y-73168000D01*
X171738000Y-73168000D02*
X171738000Y-71009000D01*
X172447000Y-97698000D02*
X171812000Y-97698000D01*
X173336000Y-97698000D02*
X173844000Y-97698000D01*
X172447000Y-97317000D02*
X172447000Y-98079000D01*
X173336000Y-97317000D02*
X173336000Y-98079000D01*
X173336000Y-98079000D02*
X172574000Y-97698000D01*
X172574000Y-97698000D02*
X173336000Y-97317000D01*
X171812000Y-94777000D02*
X171812000Y-96936000D01*
X171812000Y-96936000D02*
X173844000Y-96936000D01*
X173844000Y-96936000D02*
X173844000Y-94777000D01*
X173844000Y-94777000D02*
X171812000Y-94777000D01*
X172447000Y-102638000D02*
X171812000Y-102638000D01*
X173336000Y-102638000D02*
X173844000Y-102638000D01*
X172447000Y-102257000D02*
X172447000Y-103019000D01*
X173336000Y-102257000D02*
X173336000Y-103019000D01*
X173336000Y-103019000D02*
X172574000Y-102638000D01*
X172574000Y-102638000D02*
X173336000Y-102257000D01*
X171812000Y-99717000D02*
X171812000Y-101876000D01*
X171812000Y-101876000D02*
X173844000Y-101876000D01*
X173844000Y-101876000D02*
X173844000Y-99717000D01*
X173844000Y-99717000D02*
X171812000Y-99717000D01*
X178707000Y-97698000D02*
X178072000Y-97698000D01*
X179596000Y-97698000D02*
X180104000Y-97698000D01*
X178707000Y-97317000D02*
X178707000Y-98079000D01*
X179596000Y-97317000D02*
X179596000Y-98079000D01*
X179596000Y-98079000D02*
X178834000Y-97698000D01*
X178834000Y-97698000D02*
X179596000Y-97317000D01*
X178072000Y-94777000D02*
X178072000Y-96936000D01*
X178072000Y-96936000D02*
X180104000Y-96936000D01*
X180104000Y-96936000D02*
X180104000Y-94777000D01*
X180104000Y-94777000D02*
X178072000Y-94777000D01*
X178707000Y-102638000D02*
X178072000Y-102638000D01*
X179596000Y-102638000D02*
X180104000Y-102638000D01*
X178707000Y-102257000D02*
X178707000Y-103019000D01*
X179596000Y-102257000D02*
X179596000Y-103019000D01*
X179596000Y-103019000D02*
X178834000Y-102638000D01*
X178834000Y-102638000D02*
X179596000Y-102257000D01*
X178072000Y-99717000D02*
X178072000Y-101876000D01*
X178072000Y-101876000D02*
X180104000Y-101876000D01*
X180104000Y-101876000D02*
X180104000Y-99717000D01*
X180104000Y-99717000D02*
X178072000Y-99717000D01*
X144492000Y-92901000D02*
X145635000Y-92901000D01*
X145635000Y-92901000D02*
X145635000Y-91377000D01*
X145635000Y-91377000D02*
X144492000Y-91377000D01*
X144492000Y-91377000D02*
X144492000Y-92901000D01*
X163600000Y-59120000D02*
X170140000Y-59120000D01*
X170140000Y-59120000D02*
X170140000Y-65320000D01*
X170140000Y-65320000D02*
X163600000Y-65320000D01*
X163600000Y-59120000D02*
X162140000Y-59120000D01*
X162140000Y-59120000D02*
X162140000Y-65320000D01*
X162140000Y-65320000D02*
X163600000Y-65320000D01*
X154060000Y-59130000D02*
X158060000Y-59130000D01*
X158060000Y-59130000D02*
X158060000Y-65330000D01*
X158060000Y-65330000D02*
X154060000Y-65330000D01*
X154060000Y-59130000D02*
X152600000Y-59130000D01*
X152600000Y-59130000D02*
X152600000Y-65330000D01*
X152600000Y-65330000D02*
X154060000Y-65330000D01*
X148110000Y-65330000D02*
X139030000Y-65330000D01*
X139030000Y-65330000D02*
X139030000Y-59130000D01*
X139030000Y-59130000D02*
X148110000Y-59130000D01*
X148110000Y-65330000D02*
X149570000Y-65330000D01*
X149570000Y-65330000D02*
X149570000Y-59130000D01*
X149570000Y-59130000D02*
X148110000Y-59130000D01*
X175830000Y-85110000D02*
X175830000Y-70950000D01*
X175830000Y-70950000D02*
X182030000Y-70950000D01*
X182030000Y-70950000D02*
X182030000Y-85110000D01*
X175830000Y-85110000D02*
X175830000Y-86570000D01*
X175830000Y-86570000D02*
X182030000Y-86570000D01*
X182030000Y-86570000D02*
X182030000Y-85110000D01*
X171860000Y-65870000D02*
X171860000Y-59330000D01*
X171860000Y-59330000D02*
X178060000Y-59330000D01*
X178060000Y-59330000D02*
X178060000Y-65870000D01*
X171860000Y-65870000D02*
X171860000Y-67330000D01*
X171860000Y-67330000D02*
X178060000Y-67330000D01*
X178060000Y-67330000D02*
X178060000Y-65870000D01*
X147410000Y-113740000D02*
X135790000Y-113740000D01*
X135790000Y-113740000D02*
X135790000Y-107540000D01*
X135790000Y-107540000D02*
X147410000Y-107540000D01*
X147410000Y-113740000D02*
X148870000Y-113740000D01*
X148870000Y-113740000D02*
X148870000Y-107540000D01*
X148870000Y-107540000D02*
X147410000Y-107540000D01*
X138539000Y-96295000D02*
X138539000Y-87405000D01*
X138539000Y-87405000D02*
X141841000Y-87405000D01*
X141841000Y-87405000D02*
X141841000Y-96168000D01*
X141841000Y-96168000D02*
X141841000Y-96295000D01*
X141841000Y-96295000D02*
X138539000Y-96295000D01*
X167961000Y-91248000D02*
X149800000Y-91248000D01*
X149800000Y-91248000D02*
X149800000Y-97471000D01*
X149800000Y-97471000D02*
X149800000Y-97598000D01*
X149800000Y-97598000D02*
X167961000Y-97598000D01*
X167961000Y-97598000D02*
X167961000Y-91248000D01*
X147616981Y-89864000D02*
G75*
G03X147616981Y-89864000I-283981J0D01*
G01*
X145174000Y-90372000D02*
X145174000Y-87070000D01*
X145174000Y-87070000D02*
X147841000Y-87070000D01*
X147841000Y-87070000D02*
X147841000Y-90372000D01*
X147841000Y-90372000D02*
X145174000Y-90372000D01*
X150760000Y-66270000D02*
X166760000Y-66270000D01*
X166760000Y-66270000D02*
X166760000Y-91270000D01*
X166760000Y-91270000D02*
X150760000Y-91270000D01*
X150760000Y-91270000D02*
X150760000Y-66270000D01*
X182446000Y-112820000D02*
G75*
G03X182446000Y-112820000I-2286000J0D01*
G01*
D10*
X137502000Y-58590000D02*
G75*
G03X137502000Y-58590000I-1982000J0D01*
G01*
X183322000Y-58530000D02*
G75*
G03X183322000Y-58530000I-1982000J0D01*
G01*
X164150000Y-62220000D02*
G75*
G03X164150000Y-62220000I-550000J0D01*
G01*
X166690000Y-62220000D02*
G75*
G03X166690000Y-62220000I-550000J0D01*
G01*
X169230000Y-62220000D02*
G75*
G03X169230000Y-62220000I-550000J0D01*
G01*
X154610000Y-62230000D02*
G75*
G03X154610000Y-62230000I-550000J0D01*
G01*
X157150000Y-62230000D02*
G75*
G03X157150000Y-62230000I-550000J0D01*
G01*
X148660000Y-62230000D02*
G75*
G03X148660000Y-62230000I-550000J0D01*
G01*
X146120000Y-62230000D02*
G75*
G03X146120000Y-62230000I-550000J0D01*
G01*
X143580000Y-62230000D02*
G75*
G03X143580000Y-62230000I-550000J0D01*
G01*
X141040000Y-62230000D02*
G75*
G03X141040000Y-62230000I-550000J0D01*
G01*
X179480000Y-85110000D02*
G75*
G03X179480000Y-85110000I-550000J0D01*
G01*
X179480000Y-82570000D02*
G75*
G03X179480000Y-82570000I-550000J0D01*
G01*
X179480000Y-80030000D02*
G75*
G03X179480000Y-80030000I-550000J0D01*
G01*
X179480000Y-77490000D02*
G75*
G03X179480000Y-77490000I-550000J0D01*
G01*
X179480000Y-74950000D02*
G75*
G03X179480000Y-74950000I-550000J0D01*
G01*
X179480000Y-72410000D02*
G75*
G03X179480000Y-72410000I-550000J0D01*
G01*
X175510000Y-65870000D02*
G75*
G03X175510000Y-65870000I-550000J0D01*
G01*
X175510000Y-63330000D02*
G75*
G03X175510000Y-63330000I-550000J0D01*
G01*
X175510000Y-60790000D02*
G75*
G03X175510000Y-60790000I-550000J0D01*
G01*
X147960000Y-110640000D02*
G75*
G03X147960000Y-110640000I-550000J0D01*
G01*
X145420000Y-110640000D02*
G75*
G03X145420000Y-110640000I-550000J0D01*
G01*
X142880000Y-110640000D02*
G75*
G03X142880000Y-110640000I-550000J0D01*
G01*
X140340000Y-110640000D02*
G75*
G03X140340000Y-110640000I-550000J0D01*
G01*
X137800000Y-110640000D02*
G75*
G03X137800000Y-110640000I-550000J0D01*
G01*
X141090000Y-94390000D02*
G75*
G03X141090000Y-94390000I-900000J0D01*
G01*
X141090000Y-89290000D02*
G75*
G03X141090000Y-89290000I-900000J0D01*
G01*
X150250000Y-100900000D02*
G75*
G03X150250000Y-100900000I-450000J0D01*
G01*
X151520000Y-95820000D02*
G75*
G03X151520000Y-95820000I-450000J0D01*
G01*
X152790000Y-100900000D02*
G75*
G03X152790000Y-100900000I-450000J0D01*
G01*
X154060000Y-95820000D02*
G75*
G03X154060000Y-95820000I-450000J0D01*
G01*
X155330000Y-100900000D02*
G75*
G03X155330000Y-100900000I-450000J0D01*
G01*
X156600000Y-95820000D02*
G75*
G03X156600000Y-95820000I-450000J0D01*
G01*
X157870000Y-100900000D02*
G75*
G03X157870000Y-100900000I-450000J0D01*
G01*
X159140000Y-95820000D02*
G75*
G03X159140000Y-95820000I-450000J0D01*
G01*
X160410000Y-100900000D02*
G75*
G03X160410000Y-100900000I-450000J0D01*
G01*
X161680000Y-95820000D02*
G75*
G03X161680000Y-95820000I-450000J0D01*
G01*
X162950000Y-100900000D02*
G75*
G03X162950000Y-100900000I-450000J0D01*
G01*
X164220000Y-95820000D02*
G75*
G03X164220000Y-95820000I-450000J0D01*
G01*
X165490000Y-100900000D02*
G75*
G03X165490000Y-100900000I-450000J0D01*
G01*
X166760000Y-95820000D02*
G75*
G03X166760000Y-95820000I-450000J0D01*
G01*
X168030000Y-100900000D02*
G75*
G03X168030000Y-100900000I-450000J0D01*
G01*
X160760000Y-78770000D02*
G75*
G03X160760000Y-78770000I-2000000J0D01*
G01*
X182142000Y-112820000D02*
G75*
G03X182142000Y-112820000I-1982000J0D01*
G01*
D11*
X144458143Y-71409666D02*
X144505762Y-71457285D01*
X144553381Y-71600142D01*
X144553381Y-71695380D01*
X144505762Y-71838238D01*
X144410524Y-71933476D01*
X144315286Y-71981095D01*
X144124810Y-72028714D01*
X143981952Y-72028714D01*
X143791476Y-71981095D01*
X143696238Y-71933476D01*
X143601000Y-71838238D01*
X143553381Y-71695380D01*
X143553381Y-71600142D01*
X143601000Y-71457285D01*
X143648619Y-71409666D01*
X144553381Y-70457285D02*
X144553381Y-71028714D01*
X144553381Y-70743000D02*
X143553381Y-70743000D01*
X143696238Y-70838238D01*
X143791476Y-70933476D01*
X143839095Y-71028714D01*
X138588143Y-71579666D02*
X138635762Y-71627285D01*
X138683381Y-71770142D01*
X138683381Y-71865380D01*
X138635762Y-72008238D01*
X138540524Y-72103476D01*
X138445286Y-72151095D01*
X138254810Y-72198714D01*
X138111952Y-72198714D01*
X137921476Y-72151095D01*
X137826238Y-72103476D01*
X137731000Y-72008238D01*
X137683381Y-71865380D01*
X137683381Y-71770142D01*
X137731000Y-71627285D01*
X137778619Y-71579666D01*
X137778619Y-71198714D02*
X137731000Y-71151095D01*
X137683381Y-71055857D01*
X137683381Y-70817761D01*
X137731000Y-70722523D01*
X137778619Y-70674904D01*
X137873857Y-70627285D01*
X137969095Y-70627285D01*
X138111952Y-70674904D01*
X138683381Y-71246333D01*
X138683381Y-70627285D01*
X150238143Y-71469666D02*
X150285762Y-71517285D01*
X150333381Y-71660142D01*
X150333381Y-71755380D01*
X150285762Y-71898238D01*
X150190524Y-71993476D01*
X150095286Y-72041095D01*
X149904810Y-72088714D01*
X149761952Y-72088714D01*
X149571476Y-72041095D01*
X149476238Y-71993476D01*
X149381000Y-71898238D01*
X149333381Y-71755380D01*
X149333381Y-71660142D01*
X149381000Y-71517285D01*
X149428619Y-71469666D01*
X149333381Y-71136333D02*
X149333381Y-70517285D01*
X149714333Y-70850619D01*
X149714333Y-70707761D01*
X149761952Y-70612523D01*
X149809571Y-70564904D01*
X149904810Y-70517285D01*
X150142905Y-70517285D01*
X150238143Y-70564904D01*
X150285762Y-70612523D01*
X150333381Y-70707761D01*
X150333381Y-70993476D01*
X150285762Y-71088714D01*
X150238143Y-71136333D01*
X168035905Y-75839381D02*
X168035905Y-74839381D01*
X168274000Y-74839381D01*
X168416858Y-74887000D01*
X168512096Y-74982238D01*
X168559715Y-75077476D01*
X168607334Y-75267952D01*
X168607334Y-75410810D01*
X168559715Y-75601286D01*
X168512096Y-75696524D01*
X168416858Y-75791762D01*
X168274000Y-75839381D01*
X168035905Y-75839381D01*
X169559715Y-75839381D02*
X168988286Y-75839381D01*
X169274000Y-75839381D02*
X169274000Y-74839381D01*
X169178762Y-74982238D01*
X169083524Y-75077476D01*
X168988286Y-75125095D01*
X168425905Y-70769381D02*
X168425905Y-69769381D01*
X168664000Y-69769381D01*
X168806858Y-69817000D01*
X168902096Y-69912238D01*
X168949715Y-70007476D01*
X168997334Y-70197952D01*
X168997334Y-70340810D01*
X168949715Y-70531286D01*
X168902096Y-70626524D01*
X168806858Y-70721762D01*
X168664000Y-70769381D01*
X168425905Y-70769381D01*
X169378286Y-69864619D02*
X169425905Y-69817000D01*
X169521143Y-69769381D01*
X169759239Y-69769381D01*
X169854477Y-69817000D01*
X169902096Y-69864619D01*
X169949715Y-69959857D01*
X169949715Y-70055095D01*
X169902096Y-70197952D01*
X169330667Y-70769381D01*
X169949715Y-70769381D01*
X172015905Y-70699381D02*
X172015905Y-69699381D01*
X172254000Y-69699381D01*
X172396858Y-69747000D01*
X172492096Y-69842238D01*
X172539715Y-69937476D01*
X172587334Y-70127952D01*
X172587334Y-70270810D01*
X172539715Y-70461286D01*
X172492096Y-70556524D01*
X172396858Y-70651762D01*
X172254000Y-70699381D01*
X172015905Y-70699381D01*
X172920667Y-69699381D02*
X173539715Y-69699381D01*
X173206381Y-70080333D01*
X173349239Y-70080333D01*
X173444477Y-70127952D01*
X173492096Y-70175571D01*
X173539715Y-70270810D01*
X173539715Y-70508905D01*
X173492096Y-70604143D01*
X173444477Y-70651762D01*
X173349239Y-70699381D01*
X173063524Y-70699381D01*
X172968286Y-70651762D01*
X172920667Y-70604143D01*
X171962905Y-94340381D02*
X171962905Y-93340381D01*
X172201000Y-93340381D01*
X172343858Y-93388000D01*
X172439096Y-93483238D01*
X172486715Y-93578476D01*
X172534334Y-93768952D01*
X172534334Y-93911810D01*
X172486715Y-94102286D01*
X172439096Y-94197524D01*
X172343858Y-94292762D01*
X172201000Y-94340381D01*
X171962905Y-94340381D01*
X173391477Y-93673714D02*
X173391477Y-94340381D01*
X173153381Y-93292762D02*
X172915286Y-94007048D01*
X173534334Y-94007048D01*
X171962905Y-99280381D02*
X171962905Y-98280381D01*
X172201000Y-98280381D01*
X172343858Y-98328000D01*
X172439096Y-98423238D01*
X172486715Y-98518476D01*
X172534334Y-98708952D01*
X172534334Y-98851810D01*
X172486715Y-99042286D01*
X172439096Y-99137524D01*
X172343858Y-99232762D01*
X172201000Y-99280381D01*
X171962905Y-99280381D01*
X173439096Y-98280381D02*
X172962905Y-98280381D01*
X172915286Y-98756571D01*
X172962905Y-98708952D01*
X173058143Y-98661333D01*
X173296239Y-98661333D01*
X173391477Y-98708952D01*
X173439096Y-98756571D01*
X173486715Y-98851810D01*
X173486715Y-99089905D01*
X173439096Y-99185143D01*
X173391477Y-99232762D01*
X173296239Y-99280381D01*
X173058143Y-99280381D01*
X172962905Y-99232762D01*
X172915286Y-99185143D01*
X178222905Y-94340381D02*
X178222905Y-93340381D01*
X178461000Y-93340381D01*
X178603858Y-93388000D01*
X178699096Y-93483238D01*
X178746715Y-93578476D01*
X178794334Y-93768952D01*
X178794334Y-93911810D01*
X178746715Y-94102286D01*
X178699096Y-94197524D01*
X178603858Y-94292762D01*
X178461000Y-94340381D01*
X178222905Y-94340381D01*
X179651477Y-93340381D02*
X179461000Y-93340381D01*
X179365762Y-93388000D01*
X179318143Y-93435619D01*
X179222905Y-93578476D01*
X179175286Y-93768952D01*
X179175286Y-94149905D01*
X179222905Y-94245143D01*
X179270524Y-94292762D01*
X179365762Y-94340381D01*
X179556239Y-94340381D01*
X179651477Y-94292762D01*
X179699096Y-94245143D01*
X179746715Y-94149905D01*
X179746715Y-93911810D01*
X179699096Y-93816571D01*
X179651477Y-93768952D01*
X179556239Y-93721333D01*
X179365762Y-93721333D01*
X179270524Y-93768952D01*
X179222905Y-93816571D01*
X179175286Y-93911810D01*
X178222905Y-99280381D02*
X178222905Y-98280381D01*
X178461000Y-98280381D01*
X178603858Y-98328000D01*
X178699096Y-98423238D01*
X178746715Y-98518476D01*
X178794334Y-98708952D01*
X178794334Y-98851810D01*
X178746715Y-99042286D01*
X178699096Y-99137524D01*
X178603858Y-99232762D01*
X178461000Y-99280381D01*
X178222905Y-99280381D01*
X179127667Y-98280381D02*
X179794334Y-98280381D01*
X179365762Y-99280381D01*
X144182381Y-92496095D02*
X143182381Y-92496095D01*
X143182381Y-92258000D01*
X143230000Y-92115142D01*
X143325238Y-92019904D01*
X143420476Y-91972285D01*
X143610952Y-91924666D01*
X143753810Y-91924666D01*
X143944286Y-91972285D01*
X144039524Y-92019904D01*
X144134762Y-92115142D01*
X144182381Y-92258000D01*
X144182381Y-92496095D01*
X143610952Y-91353238D02*
X143563333Y-91448476D01*
X143515714Y-91496095D01*
X143420476Y-91543714D01*
X143372857Y-91543714D01*
X143277619Y-91496095D01*
X143230000Y-91448476D01*
X143182381Y-91353238D01*
X143182381Y-91162761D01*
X143230000Y-91067523D01*
X143277619Y-91019904D01*
X143372857Y-90972285D01*
X143420476Y-90972285D01*
X143515714Y-91019904D01*
X143563333Y-91067523D01*
X143610952Y-91162761D01*
X143610952Y-91353238D01*
X143658571Y-91448476D01*
X143706190Y-91496095D01*
X143801429Y-91543714D01*
X143991905Y-91543714D01*
X144087143Y-91496095D01*
X144134762Y-91448476D01*
X144182381Y-91353238D01*
X144182381Y-91162761D01*
X144134762Y-91067523D01*
X144087143Y-91019904D01*
X143991905Y-90972285D01*
X143801429Y-90972285D01*
X143706190Y-91019904D01*
X143658571Y-91067523D01*
X143610952Y-91162761D01*
X171291381Y-61180095D02*
X170291381Y-61180095D01*
X170291381Y-60799142D01*
X170339000Y-60703904D01*
X170386619Y-60656285D01*
X170481857Y-60608666D01*
X170624714Y-60608666D01*
X170719952Y-60656285D01*
X170767571Y-60703904D01*
X170815190Y-60799142D01*
X170815190Y-61180095D01*
X171291381Y-59656285D02*
X171291381Y-60227714D01*
X171291381Y-59942000D02*
X170291381Y-59942000D01*
X170434238Y-60037238D01*
X170529476Y-60132476D01*
X170577095Y-60227714D01*
X159211381Y-61063095D02*
X158211381Y-61063095D01*
X158211381Y-60682142D01*
X158259000Y-60586904D01*
X158306619Y-60539285D01*
X158401857Y-60491666D01*
X158544714Y-60491666D01*
X158639952Y-60539285D01*
X158687571Y-60586904D01*
X158735190Y-60682142D01*
X158735190Y-61063095D01*
X158306619Y-60110714D02*
X158259000Y-60063095D01*
X158211381Y-59967857D01*
X158211381Y-59729761D01*
X158259000Y-59634523D01*
X158306619Y-59586904D01*
X158401857Y-59539285D01*
X158497095Y-59539285D01*
X158639952Y-59586904D01*
X159211381Y-60158333D01*
X159211381Y-59539285D01*
X138783381Y-64873095D02*
X137783381Y-64873095D01*
X137783381Y-64492142D01*
X137831000Y-64396904D01*
X137878619Y-64349285D01*
X137973857Y-64301666D01*
X138116714Y-64301666D01*
X138211952Y-64349285D01*
X138259571Y-64396904D01*
X138307190Y-64492142D01*
X138307190Y-64873095D01*
X137783381Y-63968333D02*
X137783381Y-63349285D01*
X138164333Y-63682619D01*
X138164333Y-63539761D01*
X138211952Y-63444523D01*
X138259571Y-63396904D01*
X138354810Y-63349285D01*
X138592905Y-63349285D01*
X138688143Y-63396904D01*
X138735762Y-63444523D01*
X138783381Y-63539761D01*
X138783381Y-63825476D01*
X138735762Y-63920714D01*
X138688143Y-63968333D01*
X176540905Y-70576381D02*
X176540905Y-69576381D01*
X176921858Y-69576381D01*
X177017096Y-69624000D01*
X177064715Y-69671619D01*
X177112334Y-69766857D01*
X177112334Y-69909714D01*
X177064715Y-70004952D01*
X177017096Y-70052571D01*
X176921858Y-70100190D01*
X176540905Y-70100190D01*
X177969477Y-69909714D02*
X177969477Y-70576381D01*
X177731381Y-69528762D02*
X177493286Y-70243048D01*
X178112334Y-70243048D01*
X172443905Y-59083381D02*
X172443905Y-58083381D01*
X172824858Y-58083381D01*
X172920096Y-58131000D01*
X172967715Y-58178619D01*
X173015334Y-58273857D01*
X173015334Y-58416714D01*
X172967715Y-58511952D01*
X172920096Y-58559571D01*
X172824858Y-58607190D01*
X172443905Y-58607190D01*
X173920096Y-58083381D02*
X173443905Y-58083381D01*
X173396286Y-58559571D01*
X173443905Y-58511952D01*
X173539143Y-58464333D01*
X173777239Y-58464333D01*
X173872477Y-58511952D01*
X173920096Y-58559571D01*
X173967715Y-58654810D01*
X173967715Y-58892905D01*
X173920096Y-58988143D01*
X173872477Y-59035762D01*
X173777239Y-59083381D01*
X173539143Y-59083381D01*
X173443905Y-59035762D01*
X173396286Y-58988143D01*
X135543381Y-113410095D02*
X134543381Y-113410095D01*
X134543381Y-113029142D01*
X134591000Y-112933904D01*
X134638619Y-112886285D01*
X134733857Y-112838666D01*
X134876714Y-112838666D01*
X134971952Y-112886285D01*
X135019571Y-112933904D01*
X135067190Y-113029142D01*
X135067190Y-113410095D01*
X134543381Y-111981523D02*
X134543381Y-112172000D01*
X134591000Y-112267238D01*
X134638619Y-112314857D01*
X134781476Y-112410095D01*
X134971952Y-112457714D01*
X135352905Y-112457714D01*
X135448143Y-112410095D01*
X135495762Y-112362476D01*
X135543381Y-112267238D01*
X135543381Y-112076761D01*
X135495762Y-111981523D01*
X135448143Y-111933904D01*
X135352905Y-111886285D01*
X135114810Y-111886285D01*
X135019571Y-111933904D01*
X134971952Y-111981523D01*
X134924333Y-112076761D01*
X134924333Y-112267238D01*
X134971952Y-112362476D01*
X135019571Y-112410095D01*
X135114810Y-112457714D01*
X138356381Y-95318666D02*
X137880190Y-95652000D01*
X138356381Y-95890095D02*
X137356381Y-95890095D01*
X137356381Y-95509142D01*
X137404000Y-95413904D01*
X137451619Y-95366285D01*
X137546857Y-95318666D01*
X137689714Y-95318666D01*
X137784952Y-95366285D01*
X137832571Y-95413904D01*
X137880190Y-95509142D01*
X137880190Y-95890095D01*
X138356381Y-94366285D02*
X138356381Y-94937714D01*
X138356381Y-94652000D02*
X137356381Y-94652000D01*
X137499238Y-94747238D01*
X137594476Y-94842476D01*
X137642095Y-94937714D01*
X148055381Y-86942905D02*
X148864905Y-86942905D01*
X148960143Y-86895286D01*
X149007762Y-86847667D01*
X149055381Y-86752429D01*
X149055381Y-86561952D01*
X149007762Y-86466714D01*
X148960143Y-86419095D01*
X148864905Y-86371476D01*
X148055381Y-86371476D01*
X148150619Y-85942905D02*
X148103000Y-85895286D01*
X148055381Y-85800048D01*
X148055381Y-85561952D01*
X148103000Y-85466714D01*
X148150619Y-85419095D01*
X148245857Y-85371476D01*
X148341095Y-85371476D01*
X148483952Y-85419095D01*
X149055381Y-85990524D01*
X149055381Y-85371476D01*
X156213286Y-90328571D02*
X155879952Y-90328571D01*
X155879952Y-90852381D02*
X155879952Y-89852381D01*
X156356143Y-89852381D01*
X157308524Y-90852381D02*
X156975190Y-90376190D01*
X156737095Y-90852381D02*
X156737095Y-89852381D01*
X157118048Y-89852381D01*
X157213286Y-89900000D01*
X157260905Y-89947619D01*
X157308524Y-90042857D01*
X157308524Y-90185714D01*
X157260905Y-90280952D01*
X157213286Y-90328571D01*
X157118048Y-90376190D01*
X156737095Y-90376190D01*
X157927571Y-89852381D02*
X158118048Y-89852381D01*
X158213286Y-89900000D01*
X158308524Y-89995238D01*
X158356143Y-90185714D01*
X158356143Y-90519048D01*
X158308524Y-90709524D01*
X158213286Y-90804762D01*
X158118048Y-90852381D01*
X157927571Y-90852381D01*
X157832333Y-90804762D01*
X157737095Y-90709524D01*
X157689476Y-90519048D01*
X157689476Y-90185714D01*
X157737095Y-89995238D01*
X157832333Y-89900000D01*
X157927571Y-89852381D01*
X158784714Y-90852381D02*
X158784714Y-89852381D01*
X159356143Y-90852381D01*
X159356143Y-89852381D01*
X159689476Y-89852381D02*
X160260905Y-89852381D01*
X159975190Y-90852381D02*
X159975190Y-89852381D01*
X178826667Y-110224381D02*
X178493333Y-109748190D01*
X178255238Y-110224381D02*
X178255238Y-109224381D01*
X178636191Y-109224381D01*
X178731429Y-109272000D01*
X178779048Y-109319619D01*
X178826667Y-109414857D01*
X178826667Y-109557714D01*
X178779048Y-109652952D01*
X178731429Y-109700571D01*
X178636191Y-109748190D01*
X178255238Y-109748190D01*
X179255238Y-109700571D02*
X179588572Y-109700571D01*
X179731429Y-110224381D02*
X179255238Y-110224381D01*
X179255238Y-109224381D01*
X179731429Y-109224381D01*
X180493334Y-109700571D02*
X180160000Y-109700571D01*
X180160000Y-110224381D02*
X180160000Y-109224381D01*
X180636191Y-109224381D01*
X181160000Y-109224381D02*
X181160000Y-109462476D01*
X180921905Y-109367238D02*
X181160000Y-109462476D01*
X181398096Y-109367238D01*
X181017143Y-109652952D02*
X181160000Y-109462476D01*
X181302858Y-109652952D01*
X181921905Y-109224381D02*
X181921905Y-109462476D01*
X181683810Y-109367238D02*
X181921905Y-109462476D01*
X182160001Y-109367238D01*
X181779048Y-109652952D02*
X181921905Y-109462476D01*
X182064763Y-109652952D01*
M02*
