M48
;DRILL file {KiCad 4.0.1-stable} date 2/4/2016 7:10:46 PM
;FORMAT={-:-/ absolute / inch / decimal}
FMAT,2
INCH,TZ
T1C0.016
T2C0.035
T3C0.037
T4C0.063
T5C0.079
T6C0.157
%
G90
G05
M72
T1
X5.3965Y-2.6059
X5.4472Y-4.1406
X5.5004Y-4.1264
X5.5528Y-3.2839
X5.6012Y-3.2528
X5.6016Y-3.4969
X5.6677Y-3.5701
X5.6689Y-3.0634
X5.7343Y-3.1768
X5.7657Y-3.5039
X5.7815Y-2.6252
X5.8035Y-4.0469
X5.8409Y-3.248
X5.8512Y-3.6449
X5.887Y-3.3594
X5.9327Y-3.4441
X6.1909Y-2.9394
X6.2004Y-3.863
X6.3012Y-3.9043
X6.498Y-2.7134
X6.5417Y-3.565
X6.5484Y-3.4508
X6.5622Y-3.6047
X6.6335Y-2.9488
X6.6496Y-2.6654
X6.6496Y-2.8138
X6.7154Y-3.5673
X6.7343Y-3.7764
X6.7362Y-3.9689
X6.776Y-2.5587
X6.7909Y-2.6437
X6.7913Y-2.8134
T2
X5.8976Y-3.9724
X5.9476Y-3.7724
X5.9976Y-3.9724
X6.0476Y-3.7724
X6.0976Y-3.9724
X6.1476Y-3.7724
X6.1976Y-3.9724
X6.2476Y-3.7724
X6.2976Y-3.9724
X6.3476Y-3.7724
X6.3976Y-3.9724
X6.4476Y-3.7724
X6.4976Y-3.9724
X6.5476Y-3.7724
X6.5976Y-3.9724
T3
X5.4035Y-4.3559
X5.5035Y-4.3559
X5.5311Y-2.45
X5.6035Y-4.3559
X5.6311Y-2.45
X5.7035Y-4.3559
X5.7311Y-2.45
X5.8035Y-4.3559
X5.8311Y-2.45
X6.0654Y-2.45
X6.1654Y-2.45
X6.4409Y-2.4496
X6.5409Y-2.4496
X6.6409Y-2.4496
X6.8882Y-2.3933
X6.8882Y-2.4933
X6.8882Y-2.5933
X7.0445Y-2.8508
X7.0445Y-2.9508
X7.0445Y-3.0508
X7.0445Y-3.1508
X7.0445Y-3.2508
X7.0445Y-3.3508
T4
X5.5193Y-3.5154
X5.5193Y-3.7161
T5
X5.9311Y-2.7075
X6.9043Y-3.7724
X6.9299Y-3.9665
T6
X6.2504Y-3.1012
T0
M30
